<?xml version="1.0" encoding="UTF-8" standalone="no"?>
<!-- Created with Inkscape (http://www.inkscape.org/) -->

<svg
   xmlns:dc="http://purl.org/dc/elements/1.1/"
   xmlns:cc="http://creativecommons.org/ns#"
   xmlns:rdf="http://www.w3.org/1999/02/22-rdf-syntax-ns#"
   xmlns:svg="http://www.w3.org/2000/svg"
   xmlns="http://www.w3.org/2000/svg"
   xmlns:sodipodi="http://sodipodi.sourceforge.net/DTD/sodipodi-0.dtd"
   xmlns:inkscape="http://www.inkscape.org/namespaces/inkscape"
   version="1.1"
   width="630.32538"
   height="336.79474"
   id="svg2"
   xml:space="preserve"
   sodipodi:docname="cues_frequency_repartition.svg"
   inkscape:version="0.92.0 r"><sodipodi:namedview
     pagecolor="#ffffff"
     bordercolor="#666666"
     borderopacity="1"
     objecttolerance="10"
     gridtolerance="10"
     guidetolerance="10"
     inkscape:pageopacity="0"
     inkscape:pageshadow="2"
     inkscape:window-width="2880"
     inkscape:window-height="1491"
     id="namedview72"
     showgrid="false"
     inkscape:zoom="3.3363721"
     inkscape:cx="315.16269"
     inkscape:cy="168.39737"
     inkscape:window-x="0"
     inkscape:window-y="55"
     inkscape:window-maximized="1"
     inkscape:current-layer="svg2"
     fit-margin-top="0"
     fit-margin-left="0"
     fit-margin-right="0"
     fit-margin-bottom="0"><inkscape:grid
       id="grid4886"
       type="xygrid"
       originx="-15.375886"
       originy="-17.720509" /></sodipodi:namedview><metadata
     id="metadata8"><rdf:RDF><cc:Work
         rdf:about=""><dc:format>image/svg+xml</dc:format><dc:type
           rdf:resource="http://purl.org/dc/dcmitype/StillImage" /><dc:title></dc:title></cc:Work></rdf:RDF></metadata><defs
     id="defs6" /><path
     style="fill:none;stroke:#000000;stroke-width:0.49812499;stroke-linecap:butt;stroke-linejoin:miter;stroke-miterlimit:10;stroke-dasharray:none;stroke-opacity:1"
     id="path16"
     inkscape:connector-curvature="0"
     d="M 113.69911,301.43526 H 569.8513" /><g
     id="g18"
     transform="matrix(1.25,0,0,-1.25,569.8513,301.43526)"><g
       id="g20"><path
         style="fill:#000000;fill-opacity:1;fill-rule:nonzero;stroke:none"
         id="path22"
         inkscape:connector-curvature="0"
         d="M 3.58653,0 C 2.52383,0.19925 0.797,0.797 -0.3985,1.49438 V -1.49438 C 0.797,-0.797 2.52383,-0.19925 3.58653,0" /></g></g><path
     style="fill:none;stroke:#000000;stroke-width:0.49812499;stroke-linecap:butt;stroke-linejoin:miter;stroke-miterlimit:10;stroke-dasharray:none;stroke-opacity:1"
     id="path44"
     inkscape:connector-curvature="0"
     d="M 113.69911,301.43526 V 22.450637" /><g
     id="g46"
     transform="matrix(0,-1.25,-1.25,0,113.69911,22.450637)"><g
       id="g48"><path
         style="fill:#000000;fill-opacity:1;fill-rule:nonzero;stroke:none"
         id="path50"
         inkscape:connector-curvature="0"
         d="M 3.58653,0 C 2.52383,0.19925 0.797,0.797 -0.3985,1.49438 V -1.49438 C 0.797,-0.797 2.52383,-0.19925 3.58653,0" /></g></g><g
     id="g68"
     transform="matrix(1.25,0,0,-1.25,113.69911,301.43526)"
     style="fill:#e87e04;fill-opacity:1"><path
       style="fill:#e87e04;fill-opacity:1;fill-rule:nonzero;stroke:#000000;stroke-width:0.3985;stroke-linecap:butt;stroke-linejoin:miter;stroke-miterlimit:10;stroke-dasharray:none;stroke-opacity:1"
       id="path70"
       inkscape:connector-curvature="0"
       d="M 0,0 V 35.43347 H 141.73404 V 0 Z" /></g><g
     id="g88"
     transform="matrix(1.25,0,0,-1.25,113.69911,301.43526)"
     style="fill:#bf55ec;fill-opacity:1"><path
       style="fill:#bf55ec;fill-opacity:1;fill-rule:nonzero;stroke:#000000;stroke-width:0.3985;stroke-linecap:butt;stroke-linejoin:miter;stroke-miterlimit:10;stroke-dasharray:none;stroke-opacity:1"
       id="path90"
       inkscape:connector-curvature="0"
       d="m 141.73404,70.867 v 35.4335 H 354.33511 V 70.867 Z" /></g><g
     id="g108"
     transform="matrix(1.25,0,0,-1.25,113.69911,301.43526)"
     style="fill:#19b5fe;fill-opacity:1"><path
       style="fill:#19b5fe;fill-opacity:1;fill-rule:nonzero;stroke:#000000;stroke-width:0.3985;stroke-linecap:butt;stroke-linejoin:miter;stroke-miterlimit:10;stroke-dasharray:none;stroke-opacity:1"
       id="path110"
       inkscape:connector-curvature="0"
       d="m 0,141.73404 v 35.43349 h 354.33511 v -35.43349 z" /></g><g
     transform="matrix(0.60576267,0,0,0.60576267,201.14133,172.5546)"
     id="g4814"><g
       style="font-style:normal;font-variant:normal;font-weight:normal;font-stretch:normal;letter-spacing:normal;word-spacing:normal;text-anchor:start;fill:none;fill-opacity:1;fill-rule:evenodd;stroke:#000000;stroke-linecap:butt;stroke-linejoin:miter;stroke-miterlimit:10.43299961;stroke-dasharray:none;stroke-dashoffset:0;stroke-opacity:1"
       id="content"
       transform="matrix(0.50949999,0,0,-0.50949999,-89.162497,478.08842)"
       xml:space="preserve"
       stroke-miterlimit="10.433"
       font-style="normal"
       font-variant="normal"
       font-weight="normal"
       font-stretch="normal"
       font-size-adjust="none"
       letter-spacing="normal"
       word-spacing="normal"><path
         style="fill:#000000;stroke-width:0"
         inkscape:connector-curvature="0"
         d="m 461.85,410.04 5.28,5.13 c 7.76,6.87 10.76,9.56 10.76,14.54 0,5.69 -4.48,9.68 -10.56,9.68 -5.64,0 -9.33,-4.6 -9.33,-9.03 0,-2.79 2.5,-2.79 2.64,-2.79 0.86,0 2.6,0.6 2.6,2.64 0,1.3 -0.89,2.6 -2.64,2.6 -0.39,0 -0.5,0 -0.64,-0.05 1.14,3.24 3.83,5.08 6.72,5.08 4.53,0 6.68,-4.05 6.68,-8.13 0,-3.98 -2.5,-7.92 -5.23,-11.01 l -9.56,-10.66 C 458,407.5 458,407.4 458,406.2 h 18.49 l 1.4,8.67 h -1.25 c -0.25,-1.5 -0.59,-3.69 -1.09,-4.44 -0.36,-0.39 -3.64,-0.39 -4.73,-0.39 z"
         id="path4811" /></g></g><g
     id="g4965"
     transform="matrix(0.65668351,0,0,0.65668351,485.84692,127.55617)"><g
       word-spacing="normal"
       letter-spacing="normal"
       font-size-adjust="none"
       font-stretch="normal"
       font-weight="normal"
       font-variant="normal"
       font-style="normal"
       stroke-miterlimit="10.433"
       xml:space="preserve"
       transform="matrix(0.50949999,0,0,-0.50949999,-89.162497,478.08842)"
       id="g4963"
       style="font-style:normal;font-variant:normal;font-weight:normal;font-stretch:normal;letter-spacing:normal;word-spacing:normal;text-anchor:start;fill:none;fill-opacity:1;fill-rule:evenodd;stroke:#000000;stroke-linecap:butt;stroke-linejoin:miter;stroke-miterlimit:10.43299961;stroke-dasharray:none;stroke-dashoffset:0;stroke-opacity:1"><path
         id="path4951"
         d="m 464.24,427.67 v 5.78 c 0,4.39 2.39,6.78 4.58,6.78 0.15,0 0.9,0 1.65,-0.36 -0.61,-0.19 -1.5,-0.84 -1.5,-2.08 0,-1.15 0.8,-2.15 2.14,-2.15 1.44,0 2.19,1 2.19,2.2 0,1.84 -1.84,3.48 -4.48,3.48 -3.49,0 -7.72,-2.64 -7.72,-7.92 v -5.73 h -3.94 v -1.55 h 3.94 v -16.14 c 0,-2.23 -0.55,-2.23 -3.89,-2.23 v -1.55 c 1.95,0.05 4.29,0.16 5.68,0.16 1.99,0 4.33,0 6.33,-0.16 v 1.55 h -1.04 c -3.69,0 -3.79,0.54 -3.79,2.34 v 16.03 h 5.68 v 1.55 z"
         inkscape:connector-curvature="0"
         style="fill:#000000;stroke-width:0" /><path
         id="path4953"
         d="m 503.92,394.25 v 0.02 0.03 0.01 0.02 l -0.01,0.01 v 0.02 l -0.01,0.01 v 0.02 l -0.01,0.02 -0.01,0.02 -0.01,0.02 -0.02,0.03 -0.01,0.02 -0.02,0.03 -0.02,0.03 -0.03,0.03 -0.02,0.03 -0.03,0.04 -0.02,0.02 -0.02,0.02 -0.01,0.02 -0.02,0.02 -0.02,0.02 -0.02,0.03 -0.02,0.02 -0.02,0.02 -0.03,0.03 -0.02,0.02 -0.03,0.03 -0.02,0.03 -0.03,0.03 -0.02,0.03 -0.03,0.03 -0.03,0.03 -0.03,0.03 -0.04,0.03 -0.03,0.04 -0.03,0.03 -0.04,0.04 -0.04,0.03 -0.03,0.04 -0.04,0.04 c -6.22,6.28 -7.81,15.69 -7.81,23.31 0,8.67 1.89,17.35 8.01,23.56 0.64,0.61 0.64,0.71 0.64,0.86 0,0.35 -0.19,0.49 -0.48,0.49 -0.5,0 -4.99,-3.38 -7.92,-9.7 -2.55,-5.49 -3.14,-11.02 -3.14,-15.21 0,-3.89 0.54,-9.9 3.28,-15.54 2.98,-6.13 7.28,-9.36 7.78,-9.36 0.29,0 0.48,0.14 0.48,0.5 z"
         inkscape:connector-curvature="0"
         style="fill:#000000;stroke-width:0" /><path
         id="path4955"
         d="m 512.03,409.98 v -0.1 -0.1 -0.19 l -0.01,-0.18 -0.02,-0.17 -0.01,-0.15 -0.03,-0.15 -0.03,-0.13 -0.03,-0.12 -0.04,-0.11 -0.05,-0.11 -0.06,-0.09 -0.06,-0.09 -0.08,-0.08 -0.08,-0.07 -0.09,-0.06 -0.1,-0.05 -0.11,-0.05 -0.11,-0.05 -0.13,-0.03 -0.15,-0.04 -0.15,-0.02 -0.16,-0.03 -0.18,-0.01 -0.09,-0.01 -0.1,-0.01 -0.1,-0.01 h -0.1 l -0.11,-0.01 h -0.1 -0.12 l -0.11,-0.01 h -0.12 -0.13 -0.13 -0.13 -0.13 -0.14 -0.14 -0.15 -0.15 -0.16 v -1.55 c 1.66,0.05 3.99,0.16 5.44,0.16 1.49,0 3.49,-0.07 5.49,-0.16 v 1.55 c -3.35,0 -3.89,0 -3.89,2.23 v 5.14 l 3.18,2.74 c 3.83,-5.29 5.92,-8.07 5.92,-8.97 0,-0.94 -0.84,-1.14 -1.78,-1.14 v -1.55 c 1.4,0.05 4.33,0.16 5.38,0.16 1.44,0 2.89,-0.07 4.33,-0.16 v 1.55 c -1.85,0 -2.94,0 -4.83,2.64 l -6.33,8.92 c -0.05,0.09 -0.3,0.39 -0.3,0.55 0,0.18 3.53,3.18 4.03,3.57 3.15,2.55 5.24,2.64 6.29,2.69 v 1.55 c -1.44,-0.14 -2.1,-0.14 -3.49,-0.14 -1.8,0 -4.89,0.09 -5.58,0.14 v -1.55 c 0.94,-0.05 1.44,-0.59 1.44,-1.23 0,-1 -0.69,-1.6 -1.09,-1.96 l -7.03,-6.07 v 23.92 l -7.18,-0.55 v -1.55 c 3.49,0 3.89,-0.34 3.89,-2.79 z"
         inkscape:connector-curvature="0"
         style="fill:#000000;stroke-width:0" /><path
         id="path4957"
         d="m 563.58,436.34 v 0.16 0.16 0.15 l 0.01,0.15 0.01,0.13 0.01,0.13 0.02,0.13 0.02,0.11 0.03,0.12 0.04,0.1 0.04,0.1 0.05,0.09 0.06,0.09 0.07,0.08 0.07,0.08 0.09,0.07 0.1,0.06 0.12,0.06 0.06,0.03 0.06,0.03 0.07,0.02 0.07,0.03 0.07,0.02 0.08,0.02 0.08,0.02 0.08,0.02 0.09,0.02 0.1,0.02 0.09,0.02 0.1,0.01 0.11,0.01 0.11,0.02 0.11,0.01 0.12,0.01 0.12,0.01 0.13,0.01 0.13,0.01 0.13,0.01 h 0.14 l 0.15,0.01 h 0.15 l 0.16,0.01 h 0.16 0.16 0.17 0.18 1.2 v 1.55 c -1.75,-0.16 -5.43,-0.16 -7.32,-0.16 -1.9,0 -5.63,0 -7.38,0.16 v -1.55 h 1.2 c 3.83,0 3.94,-0.54 3.94,-2.34 v -11.66 h -14.91 v 11.66 c 0,1.8 0.11,2.34 3.94,2.34 h 1.21 v 1.55 c -1.76,-0.16 -5.44,-0.16 -7.33,-0.16 -1.89,0 -5.63,0 -7.38,0.16 v -1.55 h 1.21 c 3.82,0 3.93,-0.54 3.93,-2.34 v -26.25 c 0,-1.8 -0.11,-2.34 -3.93,-2.34 h -1.21 v -1.55 c 1.75,0.16 5.44,0.16 7.33,0.16 1.89,0 5.62,0 7.38,-0.16 v 1.55 h -1.21 c -3.83,0 -3.94,0.54 -3.94,2.34 v 13.05 h 14.91 v -13.05 c 0,-1.8 -0.11,-2.34 -3.94,-2.34 H 554 v -1.55 c 1.75,0.16 5.44,0.16 7.33,0.16 1.89,0 5.62,0 7.37,-0.16 v 1.55 h -1.2 c -3.83,0 -3.92,0.54 -3.92,2.34 z"
         inkscape:connector-curvature="0"
         style="fill:#000000;stroke-width:0" /><path
         id="path4959"
         d="m 589.78,426.18 0.03,0.03 0.01,0.02 0.02,0.03 0.02,0.02 0.02,0.02 0.02,0.03 0.01,0.02 0.02,0.02 0.02,0.02 0.01,0.02 0.01,0.02 0.02,0.02 0.01,0.02 0.01,0.01 0.03,0.04 0.02,0.03 0.02,0.03 0.02,0.03 0.02,0.03 0.01,0.02 0.02,0.03 0.01,0.02 0.01,0.02 0.01,0.03 0.01,0.02 v 0.02 l 0.01,0.02 0.01,0.01 v 0.02 0.02 l 0.01,0.02 v 0.03 0.03 0.04 0.04 c 0,0.64 -0.39,0.64 -1.29,0.64 h -15.94 l -0.55,-8.02 h 1.25 c 0.3,5.08 1.24,6.92 6.72,6.92 h 5.69 l -13.91,-18.78 c -0.45,-0.54 -0.45,-0.64 -0.45,-0.89 0,-0.7 0.36,-0.7 1.29,-0.7 h 16.44 l 0.86,9.31 h -1.25 c -0.45,-5.87 -1.5,-8.06 -7.28,-8.06 h -5.87 z"
         inkscape:connector-curvature="0"
         style="fill:#000000;stroke-width:0" /><path
         id="path4961"
         d="m 606.82,418.65 -0.01,0.37 v 0.39 l -0.01,0.39 -0.01,0.41 -0.04,0.84 -0.06,0.88 -0.08,0.92 -0.11,0.95 -0.14,0.97 -0.16,1.01 -0.19,1.02 -0.23,1.03 -0.27,1.05 -0.31,1.06 -0.35,1.07 -0.39,1.07 -0.21,0.53 -0.23,0.53 -0.23,0.53 -0.26,0.53 c -2.98,6.12 -7.26,9.36 -7.76,9.36 -0.3,0 -0.5,-0.19 -0.5,-0.49 0,-0.15 0,-0.25 0.94,-1.15 4.89,-4.92 7.73,-12.85 7.73,-23.27 0,-8.51 -1.84,-17.28 -8.03,-23.56 -0.64,-0.59 -0.64,-0.7 -0.64,-0.84 0,-0.3 0.2,-0.5 0.5,-0.5 0.5,0 4.97,3.39 7.92,9.71 2.53,5.47 3.13,11 3.13,15.19 z"
         inkscape:connector-curvature="0"
         style="fill:#000000;stroke-width:0" /></g></g><g
     transform="matrix(0.63894239,0,0,0.63894239,-72.27126,111.59228)"
     id="g5107"><g
       style="font-style:normal;font-variant:normal;font-weight:normal;font-stretch:normal;letter-spacing:normal;word-spacing:normal;text-anchor:start;fill:none;fill-opacity:1;fill-rule:evenodd;stroke:#000000;stroke-linecap:butt;stroke-linejoin:miter;stroke-miterlimit:10.43299961;stroke-dasharray:none;stroke-dashoffset:0;stroke-opacity:1"
       id="g5105"
       transform="matrix(0.50949999,0,0,-0.50949999,-89.162497,478.08842)"
       xml:space="preserve"
       stroke-miterlimit="10.433"
       font-style="normal"
       font-variant="normal"
       font-weight="normal"
       font-stretch="normal"
       font-size-adjust="none"
       letter-spacing="normal"
       word-spacing="normal"><path
         style="fill:#000000;stroke-width:0"
         inkscape:connector-curvature="0"
         d="m 466.72,436.34 v 0.16 l 0.01,0.16 v 0.15 l 0.01,0.15 0.01,0.13 0.01,0.13 0.02,0.13 0.03,0.11 0.03,0.12 0.04,0.1 0.05,0.1 0.05,0.09 0.06,0.09 0.08,0.08 0.08,0.08 0.09,0.07 0.11,0.06 0.12,0.06 0.06,0.03 0.07,0.03 0.07,0.02 0.07,0.03 0.08,0.02 0.08,0.02 0.08,0.02 0.09,0.02 0.09,0.02 0.1,0.02 0.1,0.02 0.11,0.01 0.1,0.01 0.12,0.02 0.11,0.01 0.13,0.01 0.12,0.01 0.13,0.01 0.14,0.01 0.14,0.01 h 0.15 l 0.15,0.01 h 0.15 l 0.16,0.01 h 0.17 0.17 0.17 0.19 1.29 v 1.55 c -1.75,-0.16 -5.68,-0.16 -7.57,-0.16 -1.94,0 -5.88,0 -7.63,0.16 v -1.55 h 1.3 c 3.93,0 4.09,-0.54 4.09,-2.34 v -26.25 c 0,-1.8 -0.16,-2.34 -4.09,-2.34 h -1.3 v -1.55 c 1.75,0.16 5.69,0.16 7.58,0.16 1.94,0 5.87,0 7.62,-0.16 v 1.55 h -1.29 c -3.94,0 -4.1,0.54 -4.1,2.34 z"
         id="path5099" /><path
         style="fill:#000000;stroke-width:0"
         inkscape:connector-curvature="0"
         d="m 506.71,439.93 h -30.46 l -0.93,-11.22 h 1.25 c 0.68,8.04 1.43,9.68 8.95,9.68 0.91,0 2.2,0 2.7,-0.11 1.05,-0.19 1.05,-0.74 1.05,-1.89 v -26.25 c 0,-1.71 0,-2.39 -5.23,-2.39 h -2 v -1.55 c 2.04,0.16 7.12,0.16 9.42,0.16 2.29,0 7.42,0 9.47,-0.16 v 1.55 h -2 c -5.24,0 -5.24,0.68 -5.24,2.39 v 26.25 c 0,1 0,1.7 0.91,1.89 0.54,0.11 1.89,0.11 2.84,0.11 7.52,0 8.27,-1.64 8.95,-9.68 h 1.25 z"
         id="path5101" /><path
         style="fill:#000000;stroke-width:0"
         inkscape:connector-curvature="0"
         d="m 511.27,440.23 v -1.55 h 1.19 c 3.84,0 3.94,-0.54 3.94,-2.34 v -26.25 c 0,-1.8 -0.1,-2.34 -3.94,-2.34 h -1.19 v -1.55 h 18.23 l -1.34,1.55 h -5.05 c -2.33,0 -2.43,0.34 -2.43,1.98 v 26.95 c 0,1.66 0.1,2 2.43,2 h 4.99 c 3.09,0 6.53,-1.09 9.08,-4.64 2.14,-2.93 2.57,-7.22 2.57,-11.11 0,-5.53 -0.93,-8.51 -2.73,-10.95 -1,-1.34 -3.83,-4.23 -8.86,-4.23 l 1.34,-1.55 c 8.36,0 15.24,7.37 15.24,16.73 0,9.47 -6.72,17.3 -15.24,17.3 z"
         id="path5103" /></g></g><g
     id="g5249"
     transform="matrix(0.67206735,0,0,0.67206735,-76.927914,14.314521)"><g
       word-spacing="normal"
       letter-spacing="normal"
       font-size-adjust="none"
       font-stretch="normal"
       font-weight="normal"
       font-variant="normal"
       font-style="normal"
       stroke-miterlimit="10.433"
       xml:space="preserve"
       transform="matrix(0.50949999,0,0,-0.50949999,-89.162497,478.08842)"
       id="g5247"
       style="font-style:normal;font-variant:normal;font-weight:normal;font-stretch:normal;letter-spacing:normal;word-spacing:normal;text-anchor:start;fill:none;fill-opacity:1;fill-rule:evenodd;stroke:#000000;stroke-linecap:butt;stroke-linejoin:miter;stroke-miterlimit:10.43299961;stroke-dasharray:none;stroke-dashoffset:0;stroke-opacity:1"><path
         id="path5241"
         d="m 466.72,436.34 v 0.16 l 0.01,0.16 v 0.15 l 0.01,0.15 0.01,0.13 0.01,0.13 0.02,0.13 0.03,0.11 0.03,0.12 0.04,0.1 0.05,0.1 0.05,0.09 0.06,0.09 0.08,0.08 0.08,0.08 0.09,0.07 0.11,0.06 0.12,0.06 0.06,0.03 0.07,0.03 0.07,0.02 0.07,0.03 0.08,0.02 0.08,0.02 0.08,0.02 0.09,0.02 0.09,0.02 0.1,0.02 0.1,0.02 0.11,0.01 0.1,0.01 0.12,0.02 0.11,0.01 0.13,0.01 0.12,0.01 0.13,0.01 0.14,0.01 0.14,0.01 h 0.15 l 0.15,0.01 h 0.15 l 0.16,0.01 h 0.17 0.17 0.17 0.19 1.29 v 1.55 c -1.75,-0.16 -5.68,-0.16 -7.57,-0.16 -1.94,0 -5.88,0 -7.63,0.16 v -1.55 h 1.3 c 3.93,0 4.09,-0.54 4.09,-2.34 v -26.25 c 0,-1.8 -0.16,-2.34 -4.09,-2.34 h -1.3 v -1.55 c 1.75,0.16 5.69,0.16 7.58,0.16 1.94,0 5.87,0 7.62,-0.16 v 1.55 h -1.29 c -3.94,0 -4.1,0.54 -4.1,2.34 z"
         inkscape:connector-curvature="0"
         style="fill:#000000;stroke-width:0" /><path
         id="path5243"
         d="m 502.52,419.06 h -1.25 c -0.55,-5.1 -1.25,-11.31 -10.02,-11.31 h -4.07 c -2.35,0 -2.46,0.34 -2.46,1.98 v 26.56 c 0,1.69 0,2.39 4.74,2.39 h 1.65 v 1.55 c -1.79,-0.16 -6.32,-0.16 -8.37,-0.16 -1.94,0 -5.83,0 -7.58,0.16 v -1.55 h 1.2 c 3.83,0 3.94,-0.54 3.94,-2.34 v -26.25 c 0,-1.8 -0.11,-2.34 -3.94,-2.34 h -1.2 v -1.55 h 25.95 z"
         inkscape:connector-curvature="0"
         style="fill:#000000;stroke-width:0" /><path
         id="path5245"
         d="m 506.35,440.23 v -1.55 h 1.19 c 3.84,0 3.93,-0.54 3.93,-2.34 v -26.25 c 0,-1.8 -0.09,-2.34 -3.93,-2.34 h -1.19 v -1.55 h 18.23 l -1.34,1.55 h -5.05 c -2.33,0 -2.44,0.34 -2.44,1.98 v 26.95 c 0,1.66 0.11,2 2.44,2 h 4.99 c 3.09,0 6.53,-1.09 9.07,-4.64 2.15,-2.93 2.58,-7.22 2.58,-11.11 0,-5.53 -0.93,-8.51 -2.73,-10.95 -1,-1.34 -3.83,-4.23 -8.86,-4.23 l 1.34,-1.55 c 8.36,0 15.24,7.37 15.24,16.73 0,9.47 -6.72,17.3 -15.24,17.3 z"
         inkscape:connector-curvature="0"
         style="fill:#000000;stroke-width:0" /></g></g><g
     transform="matrix(0.6461402,0,0,0.6461402,-93.271332,-68.876727)"
     id="g5411"><g
       style="font-style:normal;font-variant:normal;font-weight:normal;font-stretch:normal;letter-spacing:normal;word-spacing:normal;text-anchor:start;fill:none;fill-opacity:1;fill-rule:evenodd;stroke:#000000;stroke-linecap:butt;stroke-linejoin:miter;stroke-miterlimit:10.43299961;stroke-dasharray:none;stroke-dashoffset:0;stroke-opacity:1"
       id="g5409"
       transform="matrix(0.50949999,0,0,-0.50949999,-89.162497,478.08842)"
       xml:space="preserve"
       stroke-miterlimit="10.433"
       font-style="normal"
       font-variant="normal"
       font-weight="normal"
       font-stretch="normal"
       font-size-adjust="none"
       letter-spacing="normal"
       word-spacing="normal"><path
         style="fill:#000000;stroke-width:0"
         inkscape:connector-curvature="0"
         d="m 472.91,425.53 -6.37,1.54 c -3.1,0.75 -5.04,3.44 -5.04,6.33 0,3.49 2.69,6.53 6.58,6.53 8.31,0 9.41,-8.17 9.71,-10.42 0.04,-0.3 0.04,-0.59 0.6,-0.59 0.65,0 0.65,0.25 0.65,1.2 v 10 c 0,0.86 0,1.2 -0.55,1.2 -0.35,0 -0.41,-0.04 -0.75,-0.65 L 476,437.84 c -1.5,1.44 -3.54,3.48 -7.98,3.48 -5.53,0 -9.7,-4.39 -9.7,-9.67 0,-4.12 2.64,-7.76 6.51,-9.11 0.55,-0.2 3.1,-0.79 6.58,-1.64 1.34,-0.36 2.84,-0.7 4.23,-2.54 1.05,-1.3 1.55,-2.94 1.55,-4.58 0,-3.55 -2.48,-7.13 -6.67,-7.13 -1.45,0 -5.23,0.25 -7.88,2.69 -2.89,2.69 -3.04,5.87 -3.09,7.67 -0.05,0.5 -0.44,0.5 -0.59,0.5 -0.64,0 -0.64,-0.36 -0.64,-1.25 v -9.97 c 0,-0.84 0,-1.18 0.54,-1.18 0.35,0 0.39,0.09 0.74,0.64 0,0.04 0.15,0.2 1.79,2.84 1.55,-1.69 4.74,-3.48 9.18,-3.48 5.82,0 9.81,4.87 9.81,10.35 0,4.99 -3.28,9.07 -7.47,10.07 z"
         id="path5393" /><path
         style="fill:#000000;stroke-width:0"
         inkscape:connector-curvature="0"
         d="m 491.8,424.93 v 3.28 l -7.17,-0.54 v -1.55 c 3.55,0 3.89,-0.3 3.89,-2.48 v -23.32 c 0,-2.25 -0.55,-2.25 -3.89,-2.25 v -1.54 c 1.7,0.06 4.28,0.15 5.58,0.15 1.34,0 3.89,-0.09 5.64,-0.15 v 1.54 c -3.35,0 -3.89,0 -3.89,2.25 v 8.36 0.46 l 0.7,0.65 c -0.7,1.05 -0.7,1.1 -0.7,2.08 v 0 11.13 c 1.43,2.53 3.89,3.98 6.42,3.98 3.64,0 6.69,-4.39 6.69,-10.02 0,-6.03 -3.5,-10.21 -7.19,-10.21 -1.99,0 -3.88,1 -5.22,3.04 l -0.7,-0.65 c 0.25,-0.8 2.34,-3.49 6.12,-3.49 5.94,0 11.11,4.88 11.11,11.31 0,6.33 -4.83,11.25 -10.4,11.25 -3.9,0 -5.99,-2.18 -6.99,-3.28 z"
         id="path5395" /><path
         style="fill:#000000;stroke-width:0"
         inkscape:connector-curvature="0"
         d="m 517.93,417.71 0.05,1.05 c 0.29,7.42 4.48,8.66 6.18,8.66 5.13,0 5.63,-6.72 5.63,-8.66 h -11.81 l -0.05,-1.05 h 13.91 c 1.09,0 1.23,0 1.23,1.05 0,4.92 -2.69,9.75 -8.91,9.75 -5.78,0 -10.37,-5.12 -10.37,-11.36 0,-6.67 5.23,-11.5 10.97,-11.5 6.08,0 8.31,5.53 8.31,6.47 0,0.5 -0.39,0.61 -0.64,0.61 -0.45,0 -0.55,-0.3 -0.66,-0.7 -1.73,-5.13 -6.22,-5.13 -6.72,-5.13 -2.5,0 -4.48,1.49 -5.62,3.33 -1.5,2.39 -1.5,5.69 -1.5,7.48 z"
         id="path5397" /><path
         style="fill:#000000;stroke-width:0"
         inkscape:connector-curvature="0"
         d="m 540.3,417.06 0.01,0.38 0.01,0.36 0.01,0.36 0.02,0.35 0.03,0.34 0.03,0.34 0.03,0.32 0.05,0.32 0.04,0.31 0.05,0.3 0.06,0.29 0.06,0.29 0.13,0.55 0.16,0.51 0.16,0.49 0.18,0.46 0.2,0.43 0.21,0.4 0.22,0.38 0.23,0.35 0.24,0.32 0.25,0.3 0.26,0.28 0.26,0.26 0.27,0.23 0.28,0.21 0.28,0.19 0.28,0.16 0.28,0.15 0.28,0.13 0.29,0.12 0.28,0.09 0.28,0.08 0.27,0.06 0.27,0.05 0.27,0.03 0.26,0.02 0.25,0.01 c 0.44,0 3.58,-0.05 5.33,-1.85 -2.05,-0.15 -2.35,-1.64 -2.35,-2.29 0,-1.3 0.89,-2.3 2.3,-2.3 1.28,0 2.28,0.86 2.28,2.34 0,3.39 -3.78,5.33 -7.62,5.33 -6.22,0 -10.82,-5.37 -10.82,-11.55 0,-6.37 4.94,-11.31 10.72,-11.31 6.67,0 8.27,5.99 8.27,6.47 0,0.5 -0.5,0.5 -0.64,0.5 -0.46,0 -0.55,-0.19 -0.66,-0.5 -1.44,-4.62 -4.67,-5.22 -6.51,-5.22 -2.64,0 -7.04,2.14 -7.04,10.16 z"
         id="path5399" /><path
         style="fill:#000000;stroke-width:0"
         inkscape:connector-curvature="0"
         d="m 565.18,426.12 h 7.12 v 1.55 h -7.12 v 9.17 h -1.25 c -0.05,-4.08 -1.55,-9.42 -6.42,-9.61 v -1.11 h 4.23 v -13.75 c 0,-6.12 4.63,-6.72 6.42,-6.72 3.54,0 4.94,3.53 4.94,6.72 v 2.84 h -1.25 v -2.73 c 0,-3.69 -1.5,-5.58 -3.34,-5.58 -3.33,0 -3.33,4.53 -3.33,5.38 z"
         id="path5401" /><path
         style="fill:#000000;stroke-width:0"
         inkscape:connector-curvature="0"
         d="m 584.18,422.75 v 5.46 l -6.92,-0.54 v -1.55 c 3.49,0 3.89,-0.34 3.89,-2.78 v -13.36 c 0,-2.23 -0.55,-2.23 -3.89,-2.23 v -1.55 c 1.96,0.05 4.28,0.16 5.69,0.16 1.98,0 4.33,0 6.33,-0.16 v 1.55 h -1.05 c -3.69,0 -3.8,0.54 -3.8,2.34 v 7.67 c 0,4.92 2.1,9.36 5.89,9.36 0.35,0 0.44,0 0.55,-0.05 -0.15,-0.04 -1.15,-0.64 -1.15,-1.93 0,-1.41 1.04,-2.14 2.15,-2.14 0.89,0 2.14,0.59 2.14,2.18 0,1.6 -1.54,3.03 -3.69,3.03 -3.64,0 -5.43,-3.32 -6.14,-5.46 z"
         id="path5403" /><path
         style="fill:#000000;stroke-width:0"
         inkscape:connector-curvature="0"
         d="m 614.91,410.14 v -4.49 l 7.18,0.55 v 1.55 c -3.49,0 -3.89,0.34 -3.89,2.78 v 17.68 l -7.33,-0.54 v -1.55 c 3.5,0 3.89,-0.34 3.89,-2.78 v -8.88 c 0,-4.32 -2.39,-7.71 -6.03,-7.71 -4.18,0 -4.38,2.34 -4.38,4.93 v 16.53 l -7.33,-0.54 v -1.55 c 3.89,0 3.89,-0.14 3.89,-4.58 v -7.47 c 0,-3.89 0,-8.42 7.57,-8.42 2.79,0 4.98,1.39 6.43,4.49 z"
         id="path5405" /><path
         style="fill:#000000;stroke-width:0"
         inkscape:connector-curvature="0"
         d="m 628.63,423.34 v -13.36 c 0,-2.23 -0.54,-2.23 -3.89,-2.23 v -1.55 c 1.75,0.05 4.28,0.16 5.63,0.16 1.29,0 3.89,-0.11 5.58,-0.16 v 1.55 c -3.33,0 -3.88,0 -3.88,2.23 v 9.17 c 0,5.19 3.53,7.97 6.72,7.97 3.14,0 3.69,-2.69 3.69,-5.53 v -11.61 c 0,-2.23 -0.55,-2.23 -3.89,-2.23 v -1.55 c 1.75,0.05 4.29,0.16 5.64,0.16 1.29,0 3.87,-0.11 5.57,-0.16 v 1.55 c -3.34,0 -3.89,0 -3.89,2.23 v 9.17 c 0,5.19 3.55,7.97 6.74,7.97 3.14,0 3.69,-2.69 3.69,-5.53 v -11.61 c 0,-2.23 -0.55,-2.23 -3.89,-2.23 v -1.55 c 1.73,0.05 4.28,0.16 5.62,0.16 1.3,0 3.89,-0.11 5.58,-0.16 v 1.55 c -2.58,0 -3.83,0 -3.88,1.5 v 9.51 c 0,4.28 0,5.83 -1.54,7.61 -0.71,0.86 -2.35,1.84 -5.24,1.84 -4.19,0 -6.37,-2.98 -7.22,-4.87 -0.7,4.33 -4.39,4.87 -6.62,4.87 -3.64,0 -5.99,-2.14 -7.38,-5.21 v 5.21 l -7.03,-0.54 v -1.55 c 3.49,0 3.89,-0.34 3.89,-2.78 z"
         id="path5407" /></g></g><g
     id="g5591"
     transform="matrix(0.69486206,0,0,0.69486206,-20.886232,-175.96401)"><g
       word-spacing="normal"
       letter-spacing="normal"
       font-size-adjust="none"
       font-stretch="normal"
       font-weight="normal"
       font-variant="normal"
       font-style="normal"
       stroke-miterlimit="10.433"
       xml:space="preserve"
       transform="matrix(0.50949999,0,0,-0.50949999,-89.162497,478.08842)"
       id="g5589"
       style="font-style:normal;font-variant:normal;font-weight:normal;font-stretch:normal;letter-spacing:normal;word-spacing:normal;text-anchor:start;fill:none;fill-opacity:1;fill-rule:evenodd;stroke:#000000;stroke-linecap:butt;stroke-linejoin:miter;stroke-miterlimit:10.43299961;stroke-dasharray:none;stroke-dashoffset:0;stroke-opacity:1"><path
         id="path5575"
         d="m 458.32,423.23 0.02,-0.96 0.07,-0.94 0.11,-0.93 0.16,-0.91 0.2,-0.89 0.24,-0.87 0.28,-0.85 0.32,-0.83 0.36,-0.81 0.39,-0.78 0.43,-0.76 0.46,-0.74 0.49,-0.7 0.52,-0.68 0.55,-0.66 0.59,-0.62 0.6,-0.59 0.64,-0.56 0.66,-0.53 0.68,-0.5 0.7,-0.46 0.73,-0.43 0.74,-0.39 0.77,-0.35 0.78,-0.32 0.79,-0.28 0.82,-0.23 0.82,-0.2 0.84,-0.15 0.84,-0.11 0.86,-0.07 0.86,-0.02 c 8.13,0 13,6.92 13,12.7 0,0.5 0,0.84 -0.64,0.84 -0.54,0 -0.54,-0.29 -0.59,-0.79 -0.41,-7.13 -5.73,-11.21 -11.17,-11.21 -3.03,0 -12.8,1.69 -12.8,16.53 0,14.91 9.72,16.6 12.75,16.6 5.44,0 9.88,-4.53 10.86,-11.82 0.11,-0.68 0.11,-0.84 0.8,-0.84 0.79,0 0.79,0.16 0.79,1.2 v 11.8 c 0,0.86 0,1.2 -0.54,1.2 -0.19,0 -0.39,0 -0.8,-0.59 l -2.48,-3.69 c -1.85,1.8 -4.39,4.28 -9.18,4.28 -9.31,0 -17.32,-7.92 -17.32,-18.09 z"
         inkscape:connector-curvature="0"
         style="fill:#000000;stroke-width:0" /><path
         id="path5577"
         d="m 511,410.14 v -4.49 l 7.18,0.55 v 1.55 c -3.49,0 -3.9,0.34 -3.9,2.78 v 17.68 l -7.32,-0.54 v -1.55 c 3.5,0 3.89,-0.34 3.89,-2.78 v -8.88 c 0,-4.32 -2.39,-7.71 -6.03,-7.71 -4.18,0 -4.38,2.34 -4.38,4.93 v 16.53 l -7.33,-0.54 v -1.55 c 3.89,0 3.89,-0.14 3.89,-4.58 v -7.47 c 0,-3.89 0,-8.42 7.57,-8.42 2.79,0 4.98,1.39 6.43,4.49 z"
         inkscape:connector-curvature="0"
         style="fill:#000000;stroke-width:0" /><path
         id="path5579"
         d="m 524.77,417.71 0.05,1.05 c 0.29,7.42 4.48,8.66 6.18,8.66 5.13,0 5.63,-6.72 5.63,-8.66 h -11.81 l -0.05,-1.05 h 13.91 c 1.09,0 1.23,0 1.23,1.05 0,4.92 -2.69,9.75 -8.91,9.75 -5.78,0 -10.37,-5.12 -10.37,-11.36 0,-6.67 5.23,-11.5 10.97,-11.5 6.08,0 8.31,5.53 8.31,6.47 0,0.5 -0.39,0.61 -0.64,0.61 -0.45,0 -0.55,-0.3 -0.66,-0.7 -1.73,-5.13 -6.21,-5.13 -6.71,-5.13 -2.5,0 -4.49,1.49 -5.63,3.33 -1.5,2.39 -1.5,5.69 -1.5,7.48 z"
         inkscape:connector-curvature="0"
         style="fill:#000000;stroke-width:0" /><path
         id="path5581"
         d="m 566.62,426.12 h 7.13 v 1.55 h -7.13 v 9.17 h -1.25 c -0.05,-4.08 -1.55,-9.42 -6.42,-9.61 v -1.11 h 4.23 v -13.75 c 0,-6.12 4.63,-6.72 6.42,-6.72 3.54,0 4.94,3.53 4.94,6.72 v 2.84 h -1.25 v -2.73 c 0,-3.69 -1.5,-5.58 -3.34,-5.58 -3.33,0 -3.33,4.53 -3.33,5.38 z"
         inkscape:connector-curvature="0"
         style="fill:#000000;stroke-width:0" /><path
         id="path5583"
         d="m 596.55,422.93 0.06,0.15 0.06,0.14 0.07,0.14 0.06,0.13 0.07,0.12 0.07,0.13 0.07,0.12 0.08,0.11 0.15,0.22 0.15,0.2 0.16,0.19 0.16,0.18 0.16,0.16 0.17,0.14 0.17,0.14 0.17,0.12 0.17,0.11 0.17,0.1 0.17,0.09 0.16,0.09 0.17,0.07 0.17,0.06 0.16,0.05 0.16,0.05 0.16,0.04 0.15,0.03 0.15,0.03 0.14,0.02 0.14,0.02 0.12,0.02 0.13,0.01 h 0.11 l 0.11,0.01 h 0.1 0.09 0.08 v 1.55 c -1.16,-0.1 -2.6,-0.14 -3.74,-0.14 -0.9,0 -3.25,0.09 -4.34,0.14 v -1.55 c 1.55,-0.05 2.34,-0.89 2.34,-2.14 0,-0.5 -0.04,-0.59 -0.29,-1.19 l -5.04,-12.26 -5.53,13.4 c -0.2,0.5 -0.29,0.71 -0.29,0.91 0,1.28 1.84,1.28 2.78,1.28 v 1.55 c -1.28,-0.05 -4.58,-0.14 -5.42,-0.14 -1.35,0 -3.35,0.04 -4.83,0.14 v -1.55 c 2.39,0 3.33,0 4.03,-1.73 l 7.47,-18.19 c -0.25,-0.64 -0.94,-2.3 -1.25,-2.94 -1.1,-2.73 -2.49,-6.19 -5.67,-6.19 -0.25,0 -1.39,0 -2.35,0.91 1.55,0.2 1.94,1.3 1.94,2.09 0,1.3 -0.94,2.1 -2.08,2.1 -1,0 -2.09,-0.66 -2.09,-2.14 0,-2.25 2.09,-4.05 4.58,-4.05 3.14,0 5.18,2.84 6.37,5.69 z"
         inkscape:connector-curvature="0"
         style="fill:#000000;stroke-width:0" /><path
         id="path5585"
         d="m 610.72,424.93 v 3.28 l -7.18,-0.54 v -1.55 c 3.55,0 3.89,-0.3 3.89,-2.48 v -23.32 c 0,-2.25 -0.54,-2.25 -3.89,-2.25 v -1.54 c 1.71,0.06 4.28,0.15 5.58,0.15 1.35,0 3.89,-0.09 5.64,-0.15 v 1.54 c -3.34,0 -3.89,0 -3.89,2.25 v 8.36 0.46 l 0.7,0.65 c -0.7,1.05 -0.7,1.1 -0.7,2.08 v 0 11.13 c 1.44,2.53 3.89,3.98 6.42,3.98 3.64,0 6.69,-4.39 6.69,-10.02 0,-6.03 -3.5,-10.21 -7.19,-10.21 -1.98,0 -3.87,1 -5.22,3.04 l -0.7,-0.65 c 0.25,-0.8 2.35,-3.49 6.13,-3.49 5.93,0 11.1,4.88 11.1,11.31 0,6.33 -4.82,11.25 -10.4,11.25 -3.89,0 -5.98,-2.18 -6.98,-3.28 z"
         inkscape:connector-curvature="0"
         style="fill:#000000;stroke-width:0" /><path
         id="path5587"
         d="m 636.84,417.71 0.05,1.05 c 0.29,7.42 4.48,8.66 6.18,8.66 5.13,0 5.63,-6.72 5.63,-8.66 h -11.81 l -0.05,-1.05 h 13.91 c 1.09,0 1.23,0 1.23,1.05 0,4.92 -2.69,9.75 -8.91,9.75 -5.78,0 -10.37,-5.12 -10.37,-11.36 0,-6.67 5.23,-11.5 10.97,-11.5 6.08,0 8.31,5.53 8.31,6.47 0,0.5 -0.39,0.61 -0.64,0.61 -0.45,0 -0.55,-0.3 -0.66,-0.7 -1.73,-5.13 -6.21,-5.13 -6.71,-5.13 -2.5,0 -4.49,1.49 -5.63,3.33 -1.5,2.39 -1.5,5.69 -1.5,7.48 z"
         inkscape:connector-curvature="0"
         style="fill:#000000;stroke-width:0" /></g></g></svg>