<?xml version="1.0" encoding="UTF-8" standalone="no"?>
<!-- Created with Inkscape (http://www.inkscape.org/) -->

<svg
   xmlns:dc="http://purl.org/dc/elements/1.1/"
   xmlns:cc="http://creativecommons.org/ns#"
   xmlns:rdf="http://www.w3.org/1999/02/22-rdf-syntax-ns#"
   xmlns:svg="http://www.w3.org/2000/svg"
   xmlns="http://www.w3.org/2000/svg"
   xmlns:sodipodi="http://sodipodi.sourceforge.net/DTD/sodipodi-0.dtd"
   xmlns:inkscape="http://www.inkscape.org/namespaces/inkscape"
   id="svg2"
   version="1.1"
   inkscape:version="0.91 r13725"
   xml:space="preserve"
   width="285.5575"
   height="215.56876"
   viewBox="0 0 285.5575 215.56876"
   sodipodi:docname="head_behaviour.pdf"><metadata
     id="metadata8"><rdf:RDF><cc:Work
         rdf:about=""><dc:format>image/svg+xml</dc:format><dc:type
           rdf:resource="http://purl.org/dc/dcmitype/StillImage" /><dc:title></dc:title></cc:Work></rdf:RDF></metadata><defs
     id="defs6" /><sodipodi:namedview
     pagecolor="#ffffff"
     bordercolor="#666666"
     borderopacity="1"
     objecttolerance="10"
     gridtolerance="10"
     guidetolerance="10"
     inkscape:pageopacity="0"
     inkscape:pageshadow="2"
     inkscape:window-width="2815"
     inkscape:window-height="1596"
     id="namedview4"
     showgrid="false"
     inkscape:zoom="7.4061466"
     inkscape:cx="135.98045"
     inkscape:cy="104.12124"
     inkscape:window-x="65"
     inkscape:window-y="24"
     inkscape:window-maximized="1"
     inkscape:current-layer="g10" /><g
     id="g10"
     inkscape:groupmode="layer"
     inkscape:label="head_behaviour"
     transform="matrix(1.25,0,0,-1.25,0,215.56875)"><g
       id="g12"
       transform="translate(1.674,2.376)"><g
         id="g14"><g
           id="g16" /><g
           id="g18"><g
             id="g20"><path
               d="m 42.63353,44.39093 3.54333,0"
               style="fill:none;stroke:#000000;stroke-width:0.19925;stroke-linecap:butt;stroke-linejoin:miter;stroke-miterlimit:10;stroke-dasharray:none;stroke-opacity:1"
               id="path22"
               inkscape:connector-curvature="0" /></g><g
             id="g24"><path
               d="m 211.09886,44.39093 -3.54335,0"
               style="fill:none;stroke:#000000;stroke-width:0.19925;stroke-linecap:butt;stroke-linejoin:miter;stroke-miterlimit:10;stroke-dasharray:none;stroke-opacity:1"
               id="path26"
               inkscape:connector-curvature="0" /></g><g
             id="g28"><g
               id="g30"
               transform="translate(20.714,41.731)"><g
                 id="g32"><g
                   id="g34"
                   transform="translate(-22.388,-44.107)"><text
                     transform="matrix(1,0,0,-1,22.388,44.107)"
                     style="font-variant:normal;font-weight:normal;font-size:9.96259975px;font-family:CMR10;-inkscape-font-specification:CMR10;writing-mode:lr-tb;fill:#000000;fill-opacity:1;fill-rule:nonzero;stroke:none"
                     id="text36"><tspan
                       x="0 3.3205345 8.3018341"
                       y="0"
                       sodipodi:role="line"
                       id="tspan38">-15</tspan></text>
<g
                     id="g40"
                     transform="translate(22.388,44.107)" /></g></g><g
                 id="g42"
                 transform="translate(-20.714,-41.731)" /></g></g><g
             id="g44"><path
               d="m 42.63353,69.08107 3.54333,0"
               style="fill:none;stroke:#000000;stroke-width:0.19925;stroke-linecap:butt;stroke-linejoin:miter;stroke-miterlimit:10;stroke-dasharray:none;stroke-opacity:1"
               id="path46"
               inkscape:connector-curvature="0" /></g><g
             id="g48"><path
               d="m 211.09886,69.08107 -3.54335,0"
               style="fill:none;stroke:#000000;stroke-width:0.19925;stroke-linecap:butt;stroke-linejoin:miter;stroke-miterlimit:10;stroke-dasharray:none;stroke-opacity:1"
               id="path50"
               inkscape:connector-curvature="0" /></g><g
             id="g52"><g
               id="g54"
               transform="translate(17.947,66.421)"><g
                 id="g56"><g
                   id="g58"
                   transform="translate(-19.621,-68.797)"><text
                     transform="matrix(1,0,0,-1,19.621,68.797)"
                     style="font-variant:normal;font-weight:normal;font-size:9.96259975px;font-family:CMR10;-inkscape-font-specification:CMR10;writing-mode:lr-tb;fill:#000000;fill-opacity:1;fill-rule:nonzero;stroke:none"
                     id="text60"><tspan
                       x="0 3.3205345 8.3018341 11.069445"
                       y="0"
                       sodipodi:role="line"
                       id="tspan62">-7.5</tspan></text>
<g
                     id="g64"
                     transform="translate(19.621,68.797)" /></g></g><g
                 id="g66"
                 transform="translate(-17.947,-66.421)" /></g></g><g
             id="g68"><path
               d="m 42.63353,93.7712 3.54333,0"
               style="fill:none;stroke:#000000;stroke-width:0.19925;stroke-linecap:butt;stroke-linejoin:miter;stroke-miterlimit:10;stroke-dasharray:none;stroke-opacity:1"
               id="path70"
               inkscape:connector-curvature="0" /></g><g
             id="g72"><path
               d="m 211.09886,93.7712 -3.54335,0"
               style="fill:none;stroke:#000000;stroke-width:0.19925;stroke-linecap:butt;stroke-linejoin:miter;stroke-miterlimit:10;stroke-dasharray:none;stroke-opacity:1"
               id="path74"
               inkscape:connector-curvature="0" /></g><g
             id="g76"><g
               id="g78"
               transform="translate(29.017,91.111)"><g
                 id="g80"><g
                   id="g82"
                   transform="translate(-30.691,-93.487)"><text
                     transform="matrix(1,0,0,-1,30.691,93.487)"
                     style="font-variant:normal;font-weight:normal;font-size:9.96259975px;font-family:CMR10;-inkscape-font-specification:CMR10;writing-mode:lr-tb;fill:#000000;fill-opacity:1;fill-rule:nonzero;stroke:none"
                     id="text84"><tspan
                       x="0"
                       y="0"
                       id="tspan86">0</tspan></text>
<g
                     id="g88"
                     transform="translate(30.691,93.487)" /></g></g><g
                 id="g90"
                 transform="translate(-29.017,-91.111)" /></g></g><g
             id="g92"><path
               d="m 42.63353,118.46133 3.54333,0"
               style="fill:none;stroke:#000000;stroke-width:0.19925;stroke-linecap:butt;stroke-linejoin:miter;stroke-miterlimit:10;stroke-dasharray:none;stroke-opacity:1"
               id="path94"
               inkscape:connector-curvature="0" /></g><g
             id="g96"><path
               d="m 211.09886,118.46133 -3.54335,0"
               style="fill:none;stroke:#000000;stroke-width:0.19925;stroke-linecap:butt;stroke-linejoin:miter;stroke-miterlimit:10;stroke-dasharray:none;stroke-opacity:1"
               id="path98"
               inkscape:connector-curvature="0" /></g><g
             id="g100"><g
               id="g102"
               transform="translate(21.268,115.801)"><g
                 id="g104"><g
                   id="g106"
                   transform="translate(-22.942,-118.177)"><text
                     transform="matrix(1,0,0,-1,22.942,118.177)"
                     style="font-variant:normal;font-weight:normal;font-size:9.96259975px;font-family:CMR10;-inkscape-font-specification:CMR10;writing-mode:lr-tb;fill:#000000;fill-opacity:1;fill-rule:nonzero;stroke:none"
                     id="text108"><tspan
                       x="0 4.9812999 7.7489104"
                       y="0"
                       sodipodi:role="line"
                       id="tspan110">7.5</tspan></text>
<g
                     id="g112"
                     transform="translate(22.942,118.177)" /></g></g><g
                 id="g114"
                 transform="translate(-21.268,-115.801)" /></g></g><g
             id="g116"><path
               d="m 42.63353,143.15146 3.54333,0"
               style="fill:none;stroke:#000000;stroke-width:0.19925;stroke-linecap:butt;stroke-linejoin:miter;stroke-miterlimit:10;stroke-dasharray:none;stroke-opacity:1"
               id="path118"
               inkscape:connector-curvature="0" /></g><g
             id="g120"><path
               d="m 211.09886,143.15146 -3.54335,0"
               style="fill:none;stroke:#000000;stroke-width:0.19925;stroke-linecap:butt;stroke-linejoin:miter;stroke-miterlimit:10;stroke-dasharray:none;stroke-opacity:1"
               id="path122"
               inkscape:connector-curvature="0" /></g><g
             id="g124"><g
               id="g126"
               transform="translate(24.035,140.49)"><g
                 id="g128"><g
                   id="g130"
                   transform="translate(-25.709,-142.866)"><text
                     transform="matrix(1,0,0,-1,25.709,142.866)"
                     style="font-variant:normal;font-weight:normal;font-size:9.96259975px;font-family:CMR10;-inkscape-font-specification:CMR10;writing-mode:lr-tb;fill:#000000;fill-opacity:1;fill-rule:nonzero;stroke:none"
                     id="text132"><tspan
                       x="0 4.9812999"
                       y="0"
                       sodipodi:role="line"
                       id="tspan134">15</tspan></text>
<g
                     id="g136"
                     transform="translate(25.709,142.866)" /></g></g><g
                 id="g138"
                 transform="translate(-24.035,-140.49)" /></g></g><g
             id="g140"><path
               d="m 42.63353,27.9216 0,3.54335"
               style="fill:none;stroke:#000000;stroke-width:0.19925;stroke-linecap:butt;stroke-linejoin:miter;stroke-miterlimit:10;stroke-dasharray:none;stroke-opacity:1"
               id="path142"
               inkscape:connector-curvature="0" /></g><g
             id="g144"><path
               d="m 42.63353,159.62077 0,-3.54335"
               style="fill:none;stroke:#000000;stroke-width:0.19925;stroke-linecap:butt;stroke-linejoin:miter;stroke-miterlimit:10;stroke-dasharray:none;stroke-opacity:1"
               id="path146"
               inkscape:connector-curvature="0" /></g><g
             id="g148"><g
               id="g150"
               transform="translate(40.143,16.531)"><g
                 id="g152"><g
                   id="g154"
                   transform="translate(-41.817,-18.907)"><text
                     transform="matrix(1,0,0,-1,41.817,18.907)"
                     style="font-variant:normal;font-weight:normal;font-size:9.96259975px;font-family:CMR10;-inkscape-font-specification:CMR10;writing-mode:lr-tb;fill:#000000;fill-opacity:1;fill-rule:nonzero;stroke:none"
                     id="text156"><tspan
                       x="0"
                       y="0"
                       id="tspan158">0</tspan></text>
<g
                     id="g160"
                     transform="translate(41.817,18.907)" /></g></g><g
                 id="g162"
                 transform="translate(-40.143,-16.531)" /></g></g><g
             id="g164"><path
               d="m 74.04184,27.9216 0,3.54335"
               style="fill:none;stroke:#000000;stroke-width:0.19925;stroke-linecap:butt;stroke-linejoin:miter;stroke-miterlimit:10;stroke-dasharray:none;stroke-opacity:1"
               id="path166"
               inkscape:connector-curvature="0" /></g><g
             id="g168"><path
               d="m 74.04184,159.62077 0,-3.54335"
               style="fill:none;stroke:#000000;stroke-width:0.19925;stroke-linecap:butt;stroke-linejoin:miter;stroke-miterlimit:10;stroke-dasharray:none;stroke-opacity:1"
               id="path170"
               inkscape:connector-curvature="0" /></g><g
             id="g172"><g
               id="g174"
               transform="translate(65.186,16.531)"><g
                 id="g176"><g
                   id="g178"
                   transform="translate(-66.86,-18.907)"><text
                     transform="matrix(1,0,0,-1,66.86,18.907)"
                     style="font-variant:normal;font-weight:normal;font-size:9.96259975px;font-family:CMR10;-inkscape-font-specification:CMR10;writing-mode:lr-tb;fill:#000000;fill-opacity:1;fill-rule:nonzero;stroke:none"
                     id="text180"><tspan
                       x="0 4.9812999 7.7489104 12.73021"
                       y="0"
                       sodipodi:role="line"
                       id="tspan182">0.75</tspan></text>
<g
                     id="g184"
                     transform="translate(66.86,18.907)" /></g></g><g
                 id="g186"
                 transform="translate(-65.186,-16.531)" /></g></g><g
             id="g188"><path
               d="m 105.45016,27.9216 0,3.54335"
               style="fill:none;stroke:#000000;stroke-width:0.19925;stroke-linecap:butt;stroke-linejoin:miter;stroke-miterlimit:10;stroke-dasharray:none;stroke-opacity:1"
               id="path190"
               inkscape:connector-curvature="0" /></g><g
             id="g192"><path
               d="m 105.45016,159.62077 0,-3.54335"
               style="fill:none;stroke:#000000;stroke-width:0.19925;stroke-linecap:butt;stroke-linejoin:miter;stroke-miterlimit:10;stroke-dasharray:none;stroke-opacity:1"
               id="path194"
               inkscape:connector-curvature="0" /></g><g
             id="g196"><g
               id="g198"
               transform="translate(99.084,16.531)"><g
                 id="g200"><g
                   id="g202"
                   transform="translate(-100.758,-18.907)"><text
                     transform="matrix(1,0,0,-1,100.758,18.907)"
                     style="font-variant:normal;font-weight:normal;font-size:9.96259975px;font-family:CMR10;-inkscape-font-specification:CMR10;writing-mode:lr-tb;fill:#000000;fill-opacity:1;fill-rule:nonzero;stroke:none"
                     id="text204"><tspan
                       x="0 4.9812999 7.7489104"
                       y="0"
                       sodipodi:role="line"
                       id="tspan206">1.5</tspan></text>
<g
                     id="g208"
                     transform="translate(100.758,18.907)" /></g></g><g
                 id="g210"
                 transform="translate(-99.084,-16.531)" /></g></g><g
             id="g212"><path
               d="m 136.82991,27.9216 0,3.54335"
               style="fill:none;stroke:#000000;stroke-width:0.19925;stroke-linecap:butt;stroke-linejoin:miter;stroke-miterlimit:10;stroke-dasharray:none;stroke-opacity:1"
               id="path214"
               inkscape:connector-curvature="0" /></g><g
             id="g216"><path
               d="m 136.82991,159.62077 0,-3.54335"
               style="fill:none;stroke:#000000;stroke-width:0.19925;stroke-linecap:butt;stroke-linejoin:miter;stroke-miterlimit:10;stroke-dasharray:none;stroke-opacity:1"
               id="path218"
               inkscape:connector-curvature="0" /></g><g
             id="g220"><g
               id="g222"
               transform="translate(127.973,16.531)"><g
                 id="g224"><g
                   id="g226"
                   transform="translate(-129.647,-18.907)"><text
                     transform="matrix(1,0,0,-1,129.647,18.907)"
                     style="font-variant:normal;font-weight:normal;font-size:9.96259975px;font-family:CMR10;-inkscape-font-specification:CMR10;writing-mode:lr-tb;fill:#000000;fill-opacity:1;fill-rule:nonzero;stroke:none"
                     id="text228"><tspan
                       x="0 4.9812999 7.7489104 12.73021"
                       y="0"
                       sodipodi:role="line"
                       id="tspan230">2.25</tspan></text>
<g
                     id="g232"
                     transform="translate(129.647,18.907)" /></g></g><g
                 id="g234"
                 transform="translate(-127.973,-16.531)" /></g></g><g
             id="g236"><path
               d="m 168.23824,27.9216 0,3.54335"
               style="fill:none;stroke:#000000;stroke-width:0.19925;stroke-linecap:butt;stroke-linejoin:miter;stroke-miterlimit:10;stroke-dasharray:none;stroke-opacity:1"
               id="path238"
               inkscape:connector-curvature="0" /></g><g
             id="g240"><path
               d="m 168.23824,159.62077 0,-3.54335"
               style="fill:none;stroke:#000000;stroke-width:0.19925;stroke-linecap:butt;stroke-linejoin:miter;stroke-miterlimit:10;stroke-dasharray:none;stroke-opacity:1"
               id="path242"
               inkscape:connector-curvature="0" /></g><g
             id="g244"><g
               id="g246"
               transform="translate(165.746,16.531)"><g
                 id="g248"><g
                   id="g250"
                   transform="translate(-167.42,-18.907)"><text
                     transform="matrix(1,0,0,-1,167.42,18.907)"
                     style="font-variant:normal;font-weight:normal;font-size:9.96259975px;font-family:CMR10;-inkscape-font-specification:CMR10;writing-mode:lr-tb;fill:#000000;fill-opacity:1;fill-rule:nonzero;stroke:none"
                     id="text252"><tspan
                       x="0"
                       y="0"
                       id="tspan254">3</tspan></text>
<g
                     id="g256"
                     transform="translate(167.42,18.907)" /></g></g><g
                 id="g258"
                 transform="translate(-165.746,-16.531)" /></g></g><g
             id="g260"><path
               d="m 199.64655,27.9216 0,3.54335"
               style="fill:none;stroke:#000000;stroke-width:0.19925;stroke-linecap:butt;stroke-linejoin:miter;stroke-miterlimit:10;stroke-dasharray:none;stroke-opacity:1"
               id="path262"
               inkscape:connector-curvature="0" /></g><g
             id="g264"><path
               d="m 199.64655,159.62077 0,-3.54335"
               style="fill:none;stroke:#000000;stroke-width:0.19925;stroke-linecap:butt;stroke-linejoin:miter;stroke-miterlimit:10;stroke-dasharray:none;stroke-opacity:1"
               id="path266"
               inkscape:connector-curvature="0" /></g><g
             id="g268"><g
               id="g270"
               transform="translate(190.789,16.531)"><g
                 id="g272"><g
                   id="g274"
                   transform="translate(-192.463,-18.907)"><text
                     transform="matrix(1,0,0,-1,192.463,18.907)"
                     style="font-variant:normal;font-weight:normal;font-size:9.96259975px;font-family:CMR10;-inkscape-font-specification:CMR10;writing-mode:lr-tb;fill:#000000;fill-opacity:1;fill-rule:nonzero;stroke:none"
                     id="text276"><tspan
                       x="0 4.9812999 7.7489104 12.73021"
                       y="0"
                       sodipodi:role="line"
                       id="tspan278">3.75</tspan></text>
<g
                     id="g280"
                     transform="translate(192.463,18.907)" /></g></g><g
                 id="g282"
                 transform="translate(-190.789,-16.531)" /></g></g><g
             id="g284"><path
               d="m 42.63353,159.62077 0,-131.69917 168.46533,0 0,131.69917 -168.46533,0 z"
               style="fill:none;stroke:#000000;stroke-width:0.19925;stroke-linecap:butt;stroke-linejoin:miter;stroke-miterlimit:10;stroke-dasharray:none;stroke-opacity:1"
               id="path286"
               inkscape:connector-curvature="0" /></g><g
             id="g288"><g
               id="g290"
               transform="matrix(0,1,-1,0,9.119,56.207)"><g
                 id="g292"><g
                   id="g294"
                   transform="translate(-10.793,-58.583)"><text
                     transform="matrix(1,0,0,-1,10.793,58.583)"
                     style="font-variant:normal;font-weight:normal;font-size:9.96259975px;font-family:CMR10;-inkscape-font-specification:CMR10;writing-mode:lr-tb;fill:#000000;fill-opacity:1;fill-rule:nonzero;stroke:none"
                     id="text296"><tspan
                       x="0 5.5352206 9.9625998 14.9439 23.796667 29.61084 34.59214 38.521389 41.288998 45.163456 47.931065 52.912365 61.765133"
                       y="0"
                       sodipodi:role="line"
                       id="tspan298">headposition(</tspan></text>
<text
                     transform="matrix(1,0,0,-1,76.435,62.198)"
                     style="font-variant:normal;font-weight:normal;font-size:6.97380018px;font-family:CMSY7;-inkscape-font-specification:CMSY7;writing-mode:lr-tb;fill:#000000;fill-opacity:1;fill-rule:nonzero;stroke:none"
                     id="text300"><tspan
                       x="0"
                       y="0"
                       id="tspan302">◦</tspan></text>
<text
                     transform="matrix(1,0,0,-1,81.015,58.583)"
                     style="font-variant:normal;font-weight:normal;font-size:9.96259975px;font-family:CMR10;-inkscape-font-specification:CMR10;writing-mode:lr-tb;fill:#000000;fill-opacity:1;fill-rule:nonzero;stroke:none"
                     id="text304"><tspan
                       x="0"
                       y="0"
                       id="tspan306">)</tspan></text>
<g
                     id="g308"
                     transform="translate(10.793,58.583)" /></g></g><g
                 id="g310"
                 transform="translate(-9.119,-56.207)" /></g></g><g
             id="g312"><g
               id="g314"
               transform="translate(89.989,3.435)"><g
                 id="g316"><g
                   id="g318"
                   transform="translate(-91.663,-5.811)"><text
                     transform="matrix(1,0,0,-1,91.663,5.811)"
                     style="font-variant:normal;font-weight:normal;font-size:9.96259975px;font-family:CMR10;-inkscape-font-specification:CMR10;writing-mode:lr-tb;fill:#000000;fill-opacity:1;fill-rule:nonzero;stroke:none"
                     id="text320"><tspan
                       x="0 3.8744552 7.7768054 10.544415 15.525716 21.610872 27.146093 32.681313 36.583664 41.564964 45.439419 48.207027 53.188328 62.041096 65.91555 69.844803"
                       y="0"
                       sodipodi:role="line"
                       id="tspan322">trialduration(s)</tspan></text>
<g
                     id="g324"
                     transform="translate(91.663,5.811)" /></g></g><g
                 id="g326"
                 transform="translate(-89.989,-3.435)" /></g></g><g
             id="g328"><g
               id="g330"
               transform="translate(94.838,147.492)"><g
                 id="g332"><g
                   id="g334"
                   transform="translate(-96.512,-149.868)"><text
                     transform="matrix(1,0,0,-1,96.512,149.868)"
                     style="font-variant:normal;font-weight:normal;font-size:9.96259975px;font-family:CMR10;-inkscape-font-specification:CMR10;writing-mode:lr-tb;fill:#000000;fill-opacity:1;fill-rule:nonzero;stroke:none"
                     id="text336"><tspan
                       x="0 3.8744552 8.8557549 12.758105 17.739405 22.166784"
                       y="0"
                       sodipodi:role="line"
                       id="tspan338">target</tspan></text>
<g
                     id="g340"
                     transform="translate(96.512,149.868)" /></g></g><g
                 id="g342"
                 transform="translate(-94.838,-147.492)" /></g></g><g
             id="g344"><path
               d="m 129.51656,150.15295 25.96569,0"
               style="fill:none;stroke:#ff7f00;stroke-width:1.19551003;stroke-linecap:butt;stroke-linejoin:miter;stroke-miterlimit:10;stroke-dasharray:none;stroke-opacity:1"
               id="path346"
               inkscape:connector-curvature="0" /></g><g
             id="g348"><path
               d="m 42.63353,143.15146 4.19519,-6.57674 4.16707,-6.57631 4.1956,-6.60486 4.19519,-6.57629 4.19519,-6.57632 4.16707,-6.60484 4.19519,-6.57674 4.19562,-6.57633 4.16664,-6.57629 4.19561,-6.60488 4.1952,-6.57672 4.16707,-6.57631 4.19519,-6.60485 4.1956,-6.57631 4.1952,-6.57674 4.16706,6.57674 4.19519,6.57631 4.19519,6.60485 4.16705,6.57631 4.19521,6.57672 4.1956,6.60488 4.19519,6.57629 4.16707,6.57633 4.19519,6.57674 4.19562,6.60484 4.16664,6.57632 4.19562,6.57629 4.19519,6.60486 4.19519,6.57631 4.16707,6.57674 4.19519,-6.57674 4.19561,-6.57631 4.16706,-6.60486 4.19519,-6.57629 4.19519,-6.57632 4.16707,-6.60484 4.19519,-6.57674 4.19561,-6.57633 4.19518,-6.57629 4.16708,-6.60488 0.99225,-1.53074"
               style="fill:none;stroke:#ff7f00;stroke-width:1.19551003;stroke-linecap:butt;stroke-linejoin:miter;stroke-miterlimit:10;stroke-dasharray:none;stroke-opacity:1"
               id="path350"
               inkscape:connector-curvature="0" /></g><g
             id="g352"><g
               id="g354"
               transform="translate(93.814,138.761)"><g
                 id="g356"><g
                   id="g358"
                   transform="translate(-95.488,-141.137)"><text
                     transform="matrix(1,0,0,-1,95.488,141.137)"
                     style="font-variant:normal;font-weight:normal;font-size:9.96259975px;font-family:CMR10;-inkscape-font-specification:CMR10;writing-mode:lr-tb;fill:#000000;fill-opacity:1;fill-rule:nonzero;stroke:none"
                     id="text360"><tspan
                       x="0 4.9812999 9.408679 13.283134 18.818356 23.799656"
                       y="0"
                       sodipodi:role="line"
                       id="tspan362">actual</tspan></text>
<g
                     id="g364"
                     transform="translate(95.488,141.137)" /></g></g><g
                 id="g366"
                 transform="translate(-93.814,-138.761)" /></g></g><g
             id="g368"><path
               d="m 129.51656,141.42218 25.96569,0"
               style="fill:none;stroke:#43a2ca;stroke-width:1.19551003;stroke-linecap:butt;stroke-linejoin:miter;stroke-miterlimit:10;stroke-dasharray:none;stroke-opacity:1"
               id="path370"
               inkscape:connector-curvature="0" /></g><g
             id="g372"><path
               d="m 42.63353,151.9389 0.2552,-0.14186 0.2833,-0.14144 0.2552,0 0.2552,-0.0852 0.25521,0.0852 0.28329,0.14144 0.25521,0.0567 0.25518,0 0.28333,-0.14145 0.25519,-0.14188 0.2552,-0.0566 0.25519,-0.16999 0.28332,-0.0566 0.25519,0 0.2552,0.0566 0.28333,0.0848 0.25519,0 0.2552,0 0.25476,-0.0848 0.28375,-0.19854 0.25519,-0.14186 0.25476,0 0.28374,-0.0848 0.2552,0.0848 0.25476,0 0.25521,0.0566 0.28373,-0.0566 0.25521,0 0.25477,-0.0848 0.28374,-0.14186 0.2552,-0.14189 0.25476,0 0.25521,-0.0848 0.28373,0.0848 0.25478,0 0.25519,0.0852 0.28375,0.0567 0.25475,-0.14189 0.25522,-0.0848 0.25518,-0.14186 0.28331,0 0.25519,-0.0567 0.2552,0 0.28333,-0.0852 0.25519,0 0.2552,0 0.25519,-0.1981 0.28332,-0.17041 0.25519,-0.14145 0.25521,-0.14188 0.28331,-0.14186 0.2552,-0.0567 0.25519,-0.0848 0.2552,-0.0852 0.28331,-0.14186 0.25521,-0.0567 0.25518,-0.28331 0.28331,-0.22664 0.25521,-0.36853 0.2552,-0.19853 0.2552,-0.31186 0.2833,-0.19853 0.2552,-0.0848 0.25519,-0.14188 0.28332,-0.36852 0.25519,-0.28332 0.2552,-0.36851 0.25476,-0.42519 0.28376,-0.36851 0.25518,-0.42519 0.25478,-0.59561 0.28374,-0.48184 0.2552,-0.4533 0.25476,-0.5104 0.2552,-0.48185 0.28376,-0.59518 0.25474,-0.65227 0.25521,-0.93515 0.28373,-1.07744 0.25478,-0.93514 0.25519,-1.0208 0.2552,-0.73703 0.28331,-0.79372 0.2552,-0.85037 0.25519,-0.9637 0.28333,-1.13367 0.2552,-1.24745 0.25519,-1.30409 0.2552,-1.36034 0.28331,-1.16223 0.2552,-0.8789 0.25519,-0.70852 0.28331,-0.65227 0.25519,-0.7937 0.25522,-0.7937 0.25519,-0.79371 0.28331,-0.9637 0.25518,-0.99224 0.25521,-0.93515 0.28331,-0.87891 0.2552,-0.87891 0.25519,-0.65185 0.2552,-0.56706 0.28333,-0.65182 0.25519,-0.73705 0.2552,-0.79371 0.28331,-0.7937 0.2552,-0.85036 0.25519,-0.73706 0.25478,-0.7937 0.28373,-0.56707 0.25521,-0.59517 0.25474,-0.56706 0.28375,-0.65182 0.25519,-0.73706 0.25478,-0.79369 0.2552,-0.85037 0.28374,-0.9637 0.25477,-0.79372 0.25519,-0.56706 0.28375,-0.51039 0.25477,-0.42519 0.2552,-0.50996 0.25519,-0.42519 0.28332,-0.65225 0.25519,-0.73704 0.2552,-0.79372 0.2833,-0.65182 0.2552,-0.65185 0.2552,-0.42518 0.25521,-0.45374 0.28331,-0.42517 0.25519,-0.28332 0.2552,-0.65226 0.28331,-0.50996 0.2552,-0.65228 0.25519,-0.56662 0.2552,-0.45374 0.28331,-0.42518 0.25521,-0.28331 0.25518,-0.36852 0.28333,-0.42519 0.25519,-0.45373 0.2552,-0.48186 0.25519,-0.59517 0.28332,-0.56704 0.25521,-0.59518 0.25519,-0.42518 0.28331,-0.22708 0.25518,-0.33998 0.25522,-0.36853 0.25475,-0.51039 0.28375,-0.56662 0.25519,-0.51039 0.25477,-0.65184 0.28374,-0.59562 0.25521,-0.65182 0.25475,-0.42519 0.25521,-0.36853 0.28374,-0.42518 0.25477,-0.42517 0.2552,-0.36854 0.28374,-0.51039 0.25476,-0.56662 0.25521,-0.59559 0.2552,-0.56665 0.28329,-0.51039 0.25521,-0.42519 0.25518,-0.31184 0.28333,-0.33999 0.25519,-0.36853 0.2552,-0.36851 0.25519,-0.51039 0.28333,-0.56706 0.2552,-0.59517 0.25519,-0.65184 0.28332,-0.48185 0.25519,-0.45373 0.2552,-0.19853 0.25519,-0.4533 0.28333,-0.42518 0.25518,-0.42519 0.2552,-0.59561 0.2833,-0.42519 0.2552,-0.56662 0.25521,-0.59559 0.2552,-0.28333 0.28329,-0.36853 0.25521,-0.36851 0.25519,-0.28331 0.28332,-0.36853 0.25521,-0.42519 0.25518,-0.42519 0.25478,-0.59516 0.28374,-0.42562 0.2552,-0.50996 0.25476,-0.42519 0.28375,-0.36851 0.25519,-0.36852 0.25477,-0.34042 0.2552,-0.36852 0.28375,-0.36851 0.25519,-0.3681 0.25476,-0.51039 0.28375,-0.48185 0.2552,-0.45373 0.25476,-0.33998 0.25519,-0.45374 0.28375,-0.42517 0.25476,-0.42519 0.25521,-0.45329 0.28373,-0.56706 0.25478,-0.59519 0.25519,-0.65226 0.2552,-0.56705 0.28331,-0.50996 0.2552,-0.28376 0.25519,-0.36807 0.28331,-0.28375 0.25521,-0.28333 0.2552,-0.51039 0.2552,-0.42517 0.2833,-0.59518 0.2552,-0.42519 0.25519,-0.36851 0.28332,-0.36853 0.25519,-0.19852 0.2552,-0.36853 0.25519,-0.36853 0.28333,-0.36853 0.25519,-0.2833 0.2552,-0.36853 0.28332,-0.34041 0.25519,-0.36851 0.25521,-0.36809 0.25518,-0.36853 0.28333,-0.28374 0.25519,-0.28332 0.2552,-0.28375 0.28329,-0.22664 0.25522,-0.50997 0.25519,-0.3404 0.25476,-0.4533 0.28374,-0.5104 0.2552,-0.42519 0.25476,-0.28374 0.28376,-0.28331 0.25518,-0.36853 0.25478,-0.36851 0.2552,-0.36852 0.28374,-0.50996 0.25478,-0.42519 0.25518,-0.42563 0.28375,-0.28329 0.25475,-0.45331 0.25522,-0.28375 0.25519,-0.22664 0.28331,-0.28333 0.25519,-0.28373 0.2552,-0.36852 0.28332,-0.19855 0.25519,-0.31141 0.25521,-0.42519 0.25518,-0.28375 0.28333,-0.14188 0.25519,-0.22664 0.2552,-0.05667 0.28331,-0.16998 0.25521,-0.14188 0.25518,-0.19853 0.2552,-0.28331 0.28332,-0.17 0.2552,-0.19853 0.25519,-0.22664 0.28331,-0.14187 0.25518,-0.14144 0.25522,-0.14187 0.25519,-0.22666 0.28331,-0.22708 0.2552,-0.1981 0.2552,-0.28374 0.28332,-0.31188 0.25518,-0.05665 0.25521,-0.08478 0.25476,0 0.28375,-0.05708 0.25519,-0.08478 0.25478,-0.14189 0.28373,-0.05666 0.25521,-0.08477 0.25477,-0.14187 0.25519,-0.0852 0.28375,-0.05669 0.25475,-0.08478 0.2552,0 0.28374,0.08478 0.25477,0 0.25519,0 0.25521,-0.14186 0.2833,0 0.25521,0 0.25519,0.05708 0.28332,0 0.25519,0.08478 0.2552,0.05669 0.25519,0.14186 0.28333,0.08521 0.2552,0.08477 0.25519,0.05666 0.28331,0 0.25518,0 0.25522,0.14189 0.25519,0.14186 0.28331,0.14143 0.25519,0.2271 0.25522,0.28331 0.28329,0.14186 0.25521,0.14145 0.25518,0.16998 0.25521,0.14188 0.28332,0.28375 0.25519,0.28331 0.2552,0.28331 0.28331,0.36852 0.25521,0.28373 0.25518,0.28333 0.28333,0.22665 0.25519,0.36852 0.2552,0.22665 0.25474,0.3404 0.28376,0.4533 0.2552,0.56707 0.25476,0.56706 0.28374,0.65182 0.2552,0.59517 0.25478,0.65227 0.25519,0.65184 0.28375,0.65184 0.25476,0.56705 0.2552,0.59518 0.28374,0.65227 0.25478,0.7937 0.25519,0.7937 0.2552,0.85038 0.28329,0.73704 0.25521,0.56706 0.2552,0.50995 0.28331,0.42519 0.2552,0.45373 0.25519,0.56707 0.2552,0.59518 0.28331,0.65182 0.25521,0.65183 0.25519,0.70894 0.28332,0.42519 0.25519,0.36851 0.2552,0.36853 0.25519,0.65182 0.28332,0.56708 0.25519,0.59517 0.25521,0.70892 0.28331,0.79372 0.2552,0.79369 0.25519,0.59518 0.2552,0.7937 0.28331,0.50997 0.25521,0.65228 0.2552,0.70848 0.28329,0.79372 0.25521,0.65226 0.25518,0.87848 0.25478,0.70893 0.28374,0.9637 0.2552,0.56662 0.25476,0.51039 0.28375,0.5104 0.25519,0.42519 0.2552,0.50995 0.25478,0.70894 0.28374,0.65184 0.2552,0.73704 0.25476,0.70893 0.28375,0.7366 0.25519,0.5104 0.25476,0.42519 0.25519,0.28331 0.28375,0.51039 0.25476,0.59517 0.25521,0.56706 0.28373,0.73705 0.25478,0.7937 0.25519,0.70851 0.2552,0.65225 0.28333,0.79372 0.25518,0.59517 0.2552,0.48186 0.2833,0.51038 0.25522,0.65183 0.25519,0.79372 0.2552,0.87892 0.28329,0.73703 0.25522,0.85037 0.25519,0.65184 0.28331,0.65184 0.25519,0.51039 0.2552,0.5104 0.25521,0.65184 0.28331,0.70848 0.2552,0.73706 0.25519,0.85037 0.28332,0.73703 0.25519,0.51041 0.2552,0.42518 0.25519,0.36852 0.28333,0.42518 0.25519,0.36852 0.2552,0.42518 0.28331,0.51041 0.2552,0.59517 0.25519,0.56706 0.25476,0.56662 0.28374,0.51039 0.25522,0.28331 0.25476,0.51039 0.28373,0.5104 0.25521,0.50998 0.25476,0.65226 0.2552,0.7937 0.28374,0.7937 0.25478,0.65185 0.25518,0.73704 0.28376,0.56706 0.25476,0.42519 0.2552,0.45329 0.25519,0.42519 0.28331,0.5104 0.2552,0.65183 0.2552,0.70892 0.28331,0.79372 0.25519,0.65182 0.25521,0.59519 0.2552,0.56706 0.28331,0.51039 0.25519,0.59517 0.2552,0.56705 0.28331,0.65184 0.2552,0.87892 0.25519,0.85037 0.2552,0.73703 0.28331,0.79372 0.25521,0.56662 0.25519,0.51039 0.28332,0.51039 0.2552,0.50997 0.25519,0.56708 0.2552,0.73702 0.2833,0.7085 0.25522,0.65228 0.25519,0.59517 0.28331,0.51039 0.25518,0.33998 0.25521,0.3685 0.25476,0.28333 0.28375,0.45373 0.25519,0.56705 0.25477,0.56664 0.28375,0.59559 0.2552,0.42519 0.25477,0.50996 0.25519,0.42519 0.28375,0.36853 0.25475,0.36851 0.25522,0.36852 0.28373,0.42518 0.25476,0.42519 0.25519,0.51039 0.25522,0.56706 0.28329,0.50997 0.25521,0.45373 0.25519,0.33997 0.28332,0.22708 0.25521,0.28333 0.25518,0.45373 0.25521,0.33997 0.28331,0.45373 0.2552,0.56664 0.25519,0.73703 0.28332,0.65228 0.25519,0.48184 0.2552,0.4533 0.25519,0.36851 0.28331,0.48186 0.2552,0.59559 0.2552,0.70852 0.28332,0.65182 0.25518,0.79372 0.25521,0.65225 0.2552,0.79372 0.28331,0.65184 0.25519,0.45372 0.2552,0.50996 0.28331,0.48186 0.25521,0.59559 0.25518,0.56662 0.25478,0.59562 0.28374,0.56663 0.2552,0.42519 0.25476,0.45372 0.28375,0.33996 0.25519,0.31188 0.25476,0.34039 0.25521,0.31187 0.28373,0.33998 0.25478,0.36852 0.25519,0.51039 0.28375,0.36852 0.25476,0.42518 0.2552,0.42519 0.25519,0.31188 0.28333,0.28329 0.25518,0.28332 0.25521,0.28374 0.28332,0.36853 0.25519,0.36852 0.2552,0.36853 0.25519,0.42517 0.28331,0.28332 0.25521,0.28331 0.2552,0.14187 0.28329,0.31187 0.25521,0.14187 0.25518,0.33997 0.25522,0.22665 0.2833,0.14186 0.2552,0.36853 0.25519,0.22666 0.28332,0.0567 0.25519,0.0852 0.25521,0.14187 0.25518,0 0.28333,0.19812 0.2552,0.17041 0.25519,0.19809 0.28332,0.22709 0.25519,0.0567 0.25521,0.16998 0.25474,0.0567 0.28375,-0.22665 0.25521,0 0.25476,0 0.28374,0.0848 0.2552,0 0.25519,0.0852 0.25477,0.14188 0.28375,-0.0852 0.25519,-0.0567 0.25478,-0.0852 0.28374,-0.22664 0.2552,-0.14189 0.25476,-0.14144 0.2552,-0.22706 0.28374,-0.14147 0.25478,-0.0566 0.25518,-0.14187 0.28375,-0.14187 0.25475,-0.31186 0.25521,-0.42519 0.2552,-0.28332 0.28331,-0.2833 0.2552,-0.22709 0.25519,-0.14144 0.28333,-0.14187 0.25518,-0.22666 0.25521,-0.28373 0.25518,-0.42519 0.28333,-0.45329 0.25519,-0.51041 0.2552,-0.65183 0.28331,-0.42518 0.25521,-0.42519 0.25518,-0.42518 0.25521,-0.45374 0.28331,-0.51039 0.2552,-0.48185 0.2552,-0.65183 0.2833,-0.82227 0.2552,-0.79368 0.25519,-0.70852 0.25521,-0.79371 0.2833,-0.73703 0.2552,-0.56706 0.25519,-0.59517 0.28333,-0.7937 0.25518,-0.9356 0.25521,-1.02035 0.25476,-1.13367 0.28375,-1.24745 0.25519,-1.16223 0.25478,-1.13367 0.28375,-1.10558 0.25519,-0.93559 0.25476,-0.93556 0.2552,-0.93515 0.28375,-1.02078 0.25475,-1.2189 0.2552,-1.247 0.28374,-1.36078 0.25477,-1.24743 0.2552,-1.07703 0.2552,-0.87892 0.2833,-0.99181 0.25521,-1.02078 0.25519,-1.07703 0.28332,-1.16222 0.25521,-1.38888 0.25518,-1.30411 0.25521,-1.27554 0.28329,-1.24745 0.25522,-1.16222 0.25519,-0.93515 0.28331,-1.0208 0.25519,-0.79371 0.2552,-0.99181 0.2552,-1.10556 0.28331,-1.07745 0.25519,-1.02036 0.2552,-0.99223 0.28333,-0.9637 0.25519,-0.85037 0.2552,-0.93558 0.25519,-0.65184 0.28332,-0.7937 0.25519,-0.9637 0.2552,-1.13411 0.28331,-1.24701 0.25521,-1.36076 0.25519,-1.24746 0.25477,-0.93513 0.28374,-0.79372 0.2552,-0.8789"
               style="fill:none;stroke:#43a2ca;stroke-width:1.19551003;stroke-linecap:butt;stroke-linejoin:miter;stroke-miterlimit:10;stroke-dasharray:none;stroke-opacity:1"
               id="path374"
               inkscape:connector-curvature="0" /></g><g
             id="g376"><path
               d="m 42.63353,34.49792 125.60471,0"
               style="fill:none;stroke:#000000;stroke-width:0.19925;stroke-linecap:butt;stroke-linejoin:miter;stroke-miterlimit:10;stroke-dasharray:none;stroke-opacity:1"
               id="path378"
               inkscape:connector-curvature="0" /></g><g
             id="g380"><path
               d="m 188.19466,34.49792 22.9042,0"
               style="fill:none;stroke:#000000;stroke-width:0.19925;stroke-linecap:butt;stroke-linejoin:miter;stroke-miterlimit:10;stroke-dasharray:none;stroke-opacity:1"
               id="path382"
               inkscape:connector-curvature="0" /></g><g
             id="g384"><g
               id="g386"
               transform="translate(92.117,36.799)"><g
                 id="g388"><g
                   id="g390"
                   transform="translate(-93.791,-39.175)"><text
                     transform="matrix(1,0,0,-1,93.791,39.175)"
                     style="font-variant:normal;font-weight:normal;font-size:9.96259975px;font-family:CMR10;-inkscape-font-specification:CMR10;writing-mode:lr-tb;fill:#000000;fill-opacity:1;fill-rule:nonzero;stroke:none"
                     id="text392"><tspan
                       x="0 5.5352206 11.070441 14.972792 18.90204 24.437262 27.204872"
                       y="0"
                       sodipodi:role="line"
                       id="tspan394">pursuit</tspan></text>
<g
                     id="g396"
                     transform="translate(93.791,39.175)" /></g></g><g
                 id="g398"
                 transform="translate(-92.117,-36.799)" /></g></g><g
             id="g400"><g
               id="g402"
               transform="translate(196.772,36.799)"><g
                 id="g404"><g
                   id="g406"
                   transform="translate(-198.446,-39.175)"><text
                     transform="matrix(1,0,0,-1,198.446,39.175)"
                     style="font-variant:normal;font-weight:normal;font-size:9.96259975px;font-family:CMR10;-inkscape-font-specification:CMR10;writing-mode:lr-tb;fill:#000000;fill-opacity:1;fill-rule:nonzero;stroke:none"
                     id="text408"><tspan
                       x="0 3.8744552 8.3018341 12.231084"
                       y="0"
                       sodipodi:role="line"
                       id="tspan410">test</tspan></text>
<g
                     id="g412"
                     transform="translate(198.446,39.175)" /></g></g><g
                 id="g414"
                 transform="translate(-196.772,-36.799)" /></g></g></g></g></g></g></svg>