<?xml version="1.0" encoding="UTF-8" standalone="no"?>
<!-- Created with Inkscape (http://www.inkscape.org/) -->

<svg
   xmlns:dc="http://purl.org/dc/elements/1.1/"
   xmlns:cc="http://creativecommons.org/ns#"
   xmlns:rdf="http://www.w3.org/1999/02/22-rdf-syntax-ns#"
   xmlns:svg="http://www.w3.org/2000/svg"
   xmlns="http://www.w3.org/2000/svg"
   xmlns:sodipodi="http://sodipodi.sourceforge.net/DTD/sodipodi-0.dtd"
   xmlns:inkscape="http://www.inkscape.org/namespaces/inkscape"
   id="svg2"
   version="1.1"
   inkscape:version="0.91 r13725"
   xml:space="preserve"
   width="425.19626"
   height="318.89749"
   viewBox="0 0 425.19626 318.89749"
   sodipodi:docname="head_analysis.pdf"><metadata
     id="metadata8"><rdf:RDF><cc:Work
         rdf:about=""><dc:format>image/svg+xml</dc:format><dc:type
           rdf:resource="http://purl.org/dc/dcmitype/StillImage" /><dc:title></dc:title></cc:Work></rdf:RDF></metadata><defs
     id="defs6" /><sodipodi:namedview
     pagecolor="#ffffff"
     bordercolor="#666666"
     borderopacity="1"
     objecttolerance="10"
     gridtolerance="10"
     guidetolerance="10"
     inkscape:pageopacity="0"
     inkscape:pageshadow="2"
     inkscape:window-width="640"
     inkscape:window-height="480"
     id="namedview4"
     showgrid="false"
     inkscape:zoom="0.74004972"
     inkscape:cx="212.59813"
     inkscape:cy="159.44875"
     inkscape:window-x="65"
     inkscape:window-y="24"
     inkscape:window-maximized="0"
     inkscape:current-layer="g10" /><g
     id="g10"
     inkscape:groupmode="layer"
     inkscape:label="head_analysis"
     transform="matrix(1.25,0,0,-1.25,0,318.8975)"><g
       id="g12"><g
         id="g14" /><g
         id="g16"><g
           id="g18"><path
             d="m 63.95029,41.8824 252.69801,0 0,197.54877 -252.69801,0 0,-197.54877 z"
             style="fill:#ffffff;fill-opacity:1;fill-rule:nonzero;stroke:#ffffff;stroke-width:0.03984;stroke-linecap:round;stroke-linejoin:round;stroke-miterlimit:10;stroke-dasharray:none;stroke-opacity:1"
             id="path20"
             inkscape:connector-curvature="0" /></g><g
           id="g22"><path
             d="m 63.95029,41.8824 0,197.54877 252.69801,0 0,-197.54877 -252.69801,0 z"
             style="fill:none;stroke:#000000;stroke-width:0.3985;stroke-linecap:round;stroke-linejoin:round;stroke-miterlimit:10;stroke-dasharray:none;stroke-opacity:1"
             id="path24"
             inkscape:connector-curvature="0" /></g><g
           id="g26"><path
             d="m 63.95029,66.5864 5.31501,0"
             style="fill:none;stroke:#000000;stroke-width:0.19925;stroke-linecap:round;stroke-linejoin:round;stroke-miterlimit:10;stroke-dasharray:none;stroke-opacity:1"
             id="path28"
             inkscape:connector-curvature="0" /></g><g
           id="g30"><path
             d="m 316.6483,66.5864 -5.31505,0"
             style="fill:none;stroke:#000000;stroke-width:0.19925;stroke-linecap:round;stroke-linejoin:round;stroke-miterlimit:10;stroke-dasharray:none;stroke-opacity:1"
             id="path32"
             inkscape:connector-curvature="0" /></g><g
           id="g34"><g
             id="g36"
             transform="translate(39.423,63.926)"><g
               id="g38"><g
                 id="g40"
                 transform="translate(-39.423,-63.926)"><text
                   transform="matrix(1,0,0,-1,39.423,63.926)"
                   style="font-variant:normal;font-weight:normal;font-size:9.96259975px;font-family:CMR10;-inkscape-font-specification:CMR10;writing-mode:lr-tb;fill:#000000;fill-opacity:1;fill-rule:nonzero;stroke:none"
                   id="text42"><tspan
                     x="0 3.3205345 8.3018341"
                     y="0"
                     sodipodi:role="line"
                     id="tspan44">-15</tspan></text>
<g
                   id="g46"
                   transform="translate(39.423,63.926)" /></g></g><g
               id="g48"
               transform="translate(-39.423,-63.926)" /></g></g><g
           id="g50"><path
             d="m 63.95029,103.6216 5.31501,0"
             style="fill:none;stroke:#000000;stroke-width:0.19925;stroke-linecap:round;stroke-linejoin:round;stroke-miterlimit:10;stroke-dasharray:none;stroke-opacity:1"
             id="path52"
             inkscape:connector-curvature="0" /></g><g
           id="g54"><path
             d="m 316.6483,103.6216 -5.31505,0"
             style="fill:none;stroke:#000000;stroke-width:0.19925;stroke-linecap:round;stroke-linejoin:round;stroke-miterlimit:10;stroke-dasharray:none;stroke-opacity:1"
             id="path56"
             inkscape:connector-curvature="0" /></g><g
           id="g58"><g
             id="g60"
             transform="translate(36.655,100.961)"><g
               id="g62"><g
                 id="g64"
                 transform="translate(-36.655,-100.961)"><text
                   transform="matrix(1,0,0,-1,36.655,100.961)"
                   style="font-variant:normal;font-weight:normal;font-size:9.96259975px;font-family:CMR10;-inkscape-font-specification:CMR10;writing-mode:lr-tb;fill:#000000;fill-opacity:1;fill-rule:nonzero;stroke:none"
                   id="text66"><tspan
                     x="0 3.3205345 8.3018341 11.069445"
                     y="0"
                     sodipodi:role="line"
                     id="tspan68">-7.5</tspan></text>
<g
                   id="g70"
                   transform="translate(36.655,100.961)" /></g></g><g
               id="g72"
               transform="translate(-36.655,-100.961)" /></g></g><g
           id="g74"><path
             d="m 63.95029,140.65678 5.31501,0"
             style="fill:none;stroke:#000000;stroke-width:0.19925;stroke-linecap:round;stroke-linejoin:round;stroke-miterlimit:10;stroke-dasharray:none;stroke-opacity:1"
             id="path76"
             inkscape:connector-curvature="0" /></g><g
           id="g78"><path
             d="m 316.6483,140.65678 -5.31505,0"
             style="fill:none;stroke:#000000;stroke-width:0.19925;stroke-linecap:round;stroke-linejoin:round;stroke-miterlimit:10;stroke-dasharray:none;stroke-opacity:1"
             id="path80"
             inkscape:connector-curvature="0" /></g><g
           id="g82"><g
             id="g84"
             transform="translate(47.725,137.996)"><g
               id="g86"><g
                 id="g88"
                 transform="translate(-47.725,-137.996)"><text
                   transform="matrix(1,0,0,-1,47.725,137.996)"
                   style="font-variant:normal;font-weight:normal;font-size:9.96259975px;font-family:CMR10;-inkscape-font-specification:CMR10;writing-mode:lr-tb;fill:#000000;fill-opacity:1;fill-rule:nonzero;stroke:none"
                   id="text90"><tspan
                     x="0"
                     y="0"
                     id="tspan92">0</tspan></text>
<g
                   id="g94"
                   transform="translate(47.725,137.996)" /></g></g><g
               id="g96"
               transform="translate(-47.725,-137.996)" /></g></g><g
           id="g98"><path
             d="m 63.95029,177.692 5.31501,0"
             style="fill:none;stroke:#000000;stroke-width:0.19925;stroke-linecap:round;stroke-linejoin:round;stroke-miterlimit:10;stroke-dasharray:none;stroke-opacity:1"
             id="path100"
             inkscape:connector-curvature="0" /></g><g
           id="g102"><path
             d="m 316.6483,177.692 -5.31505,0"
             style="fill:none;stroke:#000000;stroke-width:0.19925;stroke-linecap:round;stroke-linejoin:round;stroke-miterlimit:10;stroke-dasharray:none;stroke-opacity:1"
             id="path104"
             inkscape:connector-curvature="0" /></g><g
           id="g106"><g
             id="g108"
             transform="translate(39.976,175.03)"><g
               id="g110"><g
                 id="g112"
                 transform="translate(-39.976,-175.03)"><text
                   transform="matrix(1,0,0,-1,39.976,175.03)"
                   style="font-variant:normal;font-weight:normal;font-size:9.96259975px;font-family:CMR10;-inkscape-font-specification:CMR10;writing-mode:lr-tb;fill:#000000;fill-opacity:1;fill-rule:nonzero;stroke:none"
                   id="text114"><tspan
                     x="0 4.9812999 7.7489104"
                     y="0"
                     sodipodi:role="line"
                     id="tspan116">7.5</tspan></text>
<g
                   id="g118"
                   transform="translate(39.976,175.03)" /></g></g><g
               id="g120"
               transform="translate(-39.976,-175.03)" /></g></g><g
           id="g122"><path
             d="m 63.95029,214.72719 5.31501,0"
             style="fill:none;stroke:#000000;stroke-width:0.19925;stroke-linecap:round;stroke-linejoin:round;stroke-miterlimit:10;stroke-dasharray:none;stroke-opacity:1"
             id="path124"
             inkscape:connector-curvature="0" /></g><g
           id="g126"><path
             d="m 316.6483,214.72719 -5.31505,0"
             style="fill:none;stroke:#000000;stroke-width:0.19925;stroke-linecap:round;stroke-linejoin:round;stroke-miterlimit:10;stroke-dasharray:none;stroke-opacity:1"
             id="path128"
             inkscape:connector-curvature="0" /></g><g
           id="g130"><g
             id="g132"
             transform="translate(42.743,212.065)"><g
               id="g134"><g
                 id="g136"
                 transform="translate(-42.743,-212.065)"><text
                   transform="matrix(1,0,0,-1,42.743,212.065)"
                   style="font-variant:normal;font-weight:normal;font-size:9.96259975px;font-family:CMR10;-inkscape-font-specification:CMR10;writing-mode:lr-tb;fill:#000000;fill-opacity:1;fill-rule:nonzero;stroke:none"
                   id="text138"><tspan
                     x="0 4.9812999"
                     y="0"
                     sodipodi:role="line"
                     id="tspan140">15</tspan></text>
<g
                   id="g142"
                   transform="translate(42.743,212.065)" /></g></g><g
               id="g144"
               transform="translate(-42.743,-212.065)" /></g></g><g
           id="g146"><path
             d="m 63.95029,41.8824 0,5.31503"
             style="fill:none;stroke:#000000;stroke-width:0.19925;stroke-linecap:round;stroke-linejoin:round;stroke-miterlimit:10;stroke-dasharray:none;stroke-opacity:1"
             id="path148"
             inkscape:connector-curvature="0" /></g><g
           id="g150"><path
             d="m 63.95029,239.43117 0,-5.31502"
             style="fill:none;stroke:#000000;stroke-width:0.19925;stroke-linecap:round;stroke-linejoin:round;stroke-miterlimit:10;stroke-dasharray:none;stroke-opacity:1"
             id="path152"
             inkscape:connector-curvature="0" /></g><g
           id="g154"><g
             id="g156"
             transform="translate(61.459,26.126)"><g
               id="g158"><g
                 id="g160"
                 transform="translate(-61.459,-26.126)"><text
                   transform="matrix(1,0,0,-1,61.459,26.126)"
                   style="font-variant:normal;font-weight:normal;font-size:9.96259975px;font-family:CMR10;-inkscape-font-specification:CMR10;writing-mode:lr-tb;fill:#000000;fill-opacity:1;fill-rule:nonzero;stroke:none"
                   id="text162"><tspan
                     x="0"
                     y="0"
                     id="tspan164">0</tspan></text>
<g
                   id="g166"
                   transform="translate(61.459,26.126)" /></g></g><g
               id="g168"
               transform="translate(-61.459,-26.126)" /></g></g><g
           id="g170"><path
             d="m 111.06276,41.8824 0,5.31503"
             style="fill:none;stroke:#000000;stroke-width:0.19925;stroke-linecap:round;stroke-linejoin:round;stroke-miterlimit:10;stroke-dasharray:none;stroke-opacity:1"
             id="path172"
             inkscape:connector-curvature="0" /></g><g
           id="g174"><path
             d="m 111.06276,239.43117 0,-5.31502"
             style="fill:none;stroke:#000000;stroke-width:0.19925;stroke-linecap:round;stroke-linejoin:round;stroke-miterlimit:10;stroke-dasharray:none;stroke-opacity:1"
             id="path176"
             inkscape:connector-curvature="0" /></g><g
           id="g178"><g
             id="g180"
             transform="translate(102.206,26.126)"><g
               id="g182"><g
                 id="g184"
                 transform="translate(-102.206,-26.126)"><text
                   transform="matrix(1,0,0,-1,102.206,26.126)"
                   style="font-variant:normal;font-weight:normal;font-size:9.96259975px;font-family:CMR10;-inkscape-font-specification:CMR10;writing-mode:lr-tb;fill:#000000;fill-opacity:1;fill-rule:nonzero;stroke:none"
                   id="text186"><tspan
                     x="0 4.9812999 7.7489104 12.73021"
                     y="0"
                     sodipodi:role="line"
                     id="tspan188">0.75</tspan></text>
<g
                   id="g190"
                   transform="translate(102.206,26.126)" /></g></g><g
               id="g192"
               transform="translate(-102.206,-26.126)" /></g></g><g
           id="g194"><path
             d="m 158.17525,41.8824 0,5.31503"
             style="fill:none;stroke:#000000;stroke-width:0.19925;stroke-linecap:round;stroke-linejoin:round;stroke-miterlimit:10;stroke-dasharray:none;stroke-opacity:1"
             id="path196"
             inkscape:connector-curvature="0" /></g><g
           id="g198"><path
             d="m 158.17525,239.43117 0,-5.31502"
             style="fill:none;stroke:#000000;stroke-width:0.19925;stroke-linecap:round;stroke-linejoin:round;stroke-miterlimit:10;stroke-dasharray:none;stroke-opacity:1"
             id="path200"
             inkscape:connector-curvature="0" /></g><g
           id="g202"><g
             id="g204"
             transform="translate(151.808,26.126)"><g
               id="g206"><g
                 id="g208"
                 transform="translate(-151.808,-26.126)"><text
                   transform="matrix(1,0,0,-1,151.808,26.126)"
                   style="font-variant:normal;font-weight:normal;font-size:9.96259975px;font-family:CMR10;-inkscape-font-specification:CMR10;writing-mode:lr-tb;fill:#000000;fill-opacity:1;fill-rule:nonzero;stroke:none"
                   id="text210"><tspan
                     x="0 4.9812999 7.7489104"
                     y="0"
                     sodipodi:role="line"
                     id="tspan212">1.5</tspan></text>
<g
                   id="g214"
                   transform="translate(151.808,26.126)" /></g></g><g
               id="g216"
               transform="translate(-151.808,-26.126)" /></g></g><g
           id="g218"><path
             d="m 205.24487,41.8824 0,5.31503"
             style="fill:none;stroke:#000000;stroke-width:0.19925;stroke-linecap:round;stroke-linejoin:round;stroke-miterlimit:10;stroke-dasharray:none;stroke-opacity:1"
             id="path220"
             inkscape:connector-curvature="0" /></g><g
           id="g222"><path
             d="m 205.24487,239.43117 0,-5.31502"
             style="fill:none;stroke:#000000;stroke-width:0.19925;stroke-linecap:round;stroke-linejoin:round;stroke-miterlimit:10;stroke-dasharray:none;stroke-opacity:1"
             id="path224"
             inkscape:connector-curvature="0" /></g><g
           id="g226"><g
             id="g228"
             transform="translate(196.387,26.126)"><g
               id="g230"><g
                 id="g232"
                 transform="translate(-196.387,-26.126)"><text
                   transform="matrix(1,0,0,-1,196.387,26.126)"
                   style="font-variant:normal;font-weight:normal;font-size:9.96259975px;font-family:CMR10;-inkscape-font-specification:CMR10;writing-mode:lr-tb;fill:#000000;fill-opacity:1;fill-rule:nonzero;stroke:none"
                   id="text234"><tspan
                     x="0 4.9812999 7.7489104 12.73021"
                     y="0"
                     sodipodi:role="line"
                     id="tspan236">2.25</tspan></text>
<g
                   id="g238"
                   transform="translate(196.387,26.126)" /></g></g><g
               id="g240"
               transform="translate(-196.387,-26.126)" /></g></g><g
           id="g242"><path
             d="m 252.35735,41.8824 0,5.31503"
             style="fill:none;stroke:#000000;stroke-width:0.19925;stroke-linecap:round;stroke-linejoin:round;stroke-miterlimit:10;stroke-dasharray:none;stroke-opacity:1"
             id="path244"
             inkscape:connector-curvature="0" /></g><g
           id="g246"><path
             d="m 252.35735,239.43117 0,-5.31502"
             style="fill:none;stroke:#000000;stroke-width:0.19925;stroke-linecap:round;stroke-linejoin:round;stroke-miterlimit:10;stroke-dasharray:none;stroke-opacity:1"
             id="path248"
             inkscape:connector-curvature="0" /></g><g
           id="g250"><g
             id="g252"
             transform="translate(249.863,26.126)"><g
               id="g254"><g
                 id="g256"
                 transform="translate(-249.863,-26.126)"><text
                   transform="matrix(1,0,0,-1,249.863,26.126)"
                   style="font-variant:normal;font-weight:normal;font-size:9.96259975px;font-family:CMR10;-inkscape-font-specification:CMR10;writing-mode:lr-tb;fill:#000000;fill-opacity:1;fill-rule:nonzero;stroke:none"
                   id="text258"><tspan
                     x="0"
                     y="0"
                     id="tspan260">3</tspan></text>
<g
                   id="g262"
                   transform="translate(249.863,26.126)" /></g></g><g
               id="g264"
               transform="translate(-249.863,-26.126)" /></g></g><g
           id="g266"><path
             d="m 299.46982,41.8824 0,5.31503"
             style="fill:none;stroke:#000000;stroke-width:0.19925;stroke-linecap:round;stroke-linejoin:round;stroke-miterlimit:10;stroke-dasharray:none;stroke-opacity:1"
             id="path268"
             inkscape:connector-curvature="0" /></g><g
           id="g270"><path
             d="m 299.46982,239.43117 0,-5.31502"
             style="fill:none;stroke:#000000;stroke-width:0.19925;stroke-linecap:round;stroke-linejoin:round;stroke-miterlimit:10;stroke-dasharray:none;stroke-opacity:1"
             id="path272"
             inkscape:connector-curvature="0" /></g><g
           id="g274"><g
             id="g276"
             transform="translate(290.61,26.126)"><g
               id="g278"><g
                 id="g280"
                 transform="translate(-290.61,-26.126)"><text
                   transform="matrix(1,0,0,-1,290.61,26.126)"
                   style="font-variant:normal;font-weight:normal;font-size:9.96259975px;font-family:CMR10;-inkscape-font-specification:CMR10;writing-mode:lr-tb;fill:#000000;fill-opacity:1;fill-rule:nonzero;stroke:none"
                   id="text282"><tspan
                     x="0 4.9812999 7.7489104 12.73021"
                     y="0"
                     sodipodi:role="line"
                     id="tspan284">3.75</tspan></text>
<g
                   id="g286"
                   transform="translate(290.61,26.126)" /></g></g><g
               id="g288"
               transform="translate(-290.61,-26.126)" /></g></g><g
           id="g290"><path
             d="m 63.95029,239.43117 0,-197.54877 252.69801,0 0,197.54877 -252.69801,0 z"
             style="fill:none;stroke:#000000;stroke-width:0.19925;stroke-linecap:round;stroke-linejoin:round;stroke-miterlimit:10;stroke-dasharray:none;stroke-opacity:1"
             id="path292"
             inkscape:connector-curvature="0" /></g><g
           id="g294"><g
             id="g296"
             transform="matrix(0,1,-1,0,12.605,103.092)"><g
               id="g298"><g
                 id="g300"
                 transform="translate(-12.605,-103.092)"><text
                   transform="matrix(1,0,0,-1,12.605,103.092)"
                   style="font-variant:normal;font-weight:normal;font-size:9.96259975px;font-family:CMR10;-inkscape-font-specification:CMR10;writing-mode:lr-tb;fill:#000000;fill-opacity:1;fill-rule:nonzero;stroke:none"
                   id="text302"><tspan
                     x="0 5.5352206 9.9625998 14.9439 23.796667 29.61084 34.59214 38.521389 41.288998 45.163456 47.931065 52.912365 61.765133"
                     y="0"
                     sodipodi:role="line"
                     id="tspan304">headposition(</tspan></text>
<text
                   transform="matrix(1,0,0,-1,78.248,106.707)"
                   style="font-variant:normal;font-weight:normal;font-size:6.97380018px;font-family:CMSY7;-inkscape-font-specification:CMSY7;writing-mode:lr-tb;fill:#000000;fill-opacity:1;fill-rule:nonzero;stroke:none"
                   id="text306"><tspan
                     x="0"
                     y="0"
                     id="tspan308">◦</tspan></text>
<text
                   transform="matrix(1,0,0,-1,82.828,103.092)"
                   style="font-variant:normal;font-weight:normal;font-size:9.96259975px;font-family:CMR10;-inkscape-font-specification:CMR10;writing-mode:lr-tb;fill:#000000;fill-opacity:1;fill-rule:nonzero;stroke:none"
                   id="text310"><tspan
                     x="0"
                     y="0"
                     id="tspan312">)</tspan></text>
<g
                   id="g314"
                   transform="translate(12.605,103.092)" /></g></g><g
               id="g316"
               transform="translate(-12.605,-103.092)" /></g></g><g
           id="g318"><g
             id="g320"
             transform="translate(153.414,6.482)"><g
               id="g322"><g
                 id="g324"
                 transform="translate(-153.414,-6.482)"><text
                   transform="matrix(1,0,0,-1,153.414,6.482)"
                   style="font-variant:normal;font-weight:normal;font-size:9.96259975px;font-family:CMR10;-inkscape-font-specification:CMR10;writing-mode:lr-tb;fill:#000000;fill-opacity:1;fill-rule:nonzero;stroke:none"
                   id="text326"><tspan
                     x="0 3.8744552 7.7768054 10.544415 15.525716 21.610872 27.146093 32.681313 36.583664 41.564964 45.439419 48.207027 53.188328 62.041096 65.91555 69.844803"
                     y="0"
                     sodipodi:role="line"
                     id="tspan328">trialduration(s)</tspan></text>
<g
                   id="g330"
                   transform="translate(153.414,6.482)" /></g></g><g
               id="g332"
               transform="translate(-153.414,-6.482)" /></g></g><g
           id="g334"><path
             d="m 79.64038,214.72719 0,0 62.8026,0 0,-148.14079 -62.8026,0 0,148.14079 z"
             style="fill:#666666;fill-opacity:1;fill-rule:nonzero;stroke:#666666;stroke-width:0.03984;stroke-linecap:round;stroke-linejoin:round;stroke-miterlimit:10;stroke-dasharray:none;stroke-opacity:1"
             id="path336"
             inkscape:connector-curvature="0" /></g><g
           id="g338"><path
             d="m 79.64038,214.72719 62.8026,0 0,-148.14079 -62.8026,0 0,148.14079 z"
             style="fill:none;stroke:#666666;stroke-width:0.3985;stroke-linecap:round;stroke-linejoin:round;stroke-miterlimit:10;stroke-dasharray:none;stroke-opacity:1"
             id="path340"
             inkscape:connector-curvature="0" /></g><g
           id="g342"><path
             d="m 79.64038,214.72719 62.8026,0 0,-148.14079 -62.8026,0 0,148.14079 z"
             style="fill:none;stroke:#666666;stroke-width:0.19925;stroke-linecap:round;stroke-linejoin:round;stroke-miterlimit:10;stroke-dasharray:none;stroke-opacity:1"
             id="path344"
             inkscape:connector-curvature="0" /></g><g
           id="g346"><path
             d="m 173.86533,214.72719 0,0 62.80192,0 0,-148.14079 -62.80192,0 0,148.14079 z"
             style="fill:#666666;fill-opacity:1;fill-rule:nonzero;stroke:#666666;stroke-width:0.03984;stroke-linecap:round;stroke-linejoin:round;stroke-miterlimit:10;stroke-dasharray:none;stroke-opacity:1"
             id="path348"
             inkscape:connector-curvature="0" /></g><g
           id="g350"><path
             d="m 173.86533,214.72719 62.80192,0 0,-148.14079 -62.80192,0 0,148.14079 z"
             style="fill:none;stroke:#666666;stroke-width:0.3985;stroke-linecap:round;stroke-linejoin:round;stroke-miterlimit:10;stroke-dasharray:1.49442, 2.24162;stroke-dashoffset:0;stroke-opacity:1"
             id="path352"
             inkscape:connector-curvature="0" /></g><g
           id="g354"><path
             d="m 173.86533,214.72719 62.80192,0 0,-148.14079 -62.80192,0 0,148.14079 z"
             style="fill:none;stroke:#666666;stroke-width:0.19925;stroke-linecap:round;stroke-linejoin:round;stroke-miterlimit:10;stroke-dasharray:none;stroke-opacity:1"
             id="path356"
             inkscape:connector-curvature="0" /></g><g
           id="g358"><g
             id="g360"
             transform="translate(224.764,222.567)"><g
               id="g362"><g
                 id="g364"
                 transform="translate(-224.764,-222.567)"><text
                   transform="matrix(1,0,0,-1,224.764,222.567)"
                   style="font-variant:normal;font-weight:normal;font-size:9.96259975px;font-family:CMR10;-inkscape-font-specification:CMR10;writing-mode:lr-tb;fill:#000000;fill-opacity:1;fill-rule:nonzero;stroke:none"
                   id="text366"><tspan
                     x="0 3.8744552 8.8557549 12.758105 17.739405 22.166784"
                     y="0"
                     sodipodi:role="line"
                     id="tspan368">target</tspan></text>
<g
                   id="g370"
                   transform="translate(224.764,222.567)" /></g></g><g
               id="g372"
               transform="translate(-224.764,-222.567)" /></g></g><g
           id="g374"><path
             d="m 262.05183,225.22943 38.94852,0"
             style="fill:none;stroke:#ff7f00;stroke-width:1.19551003;stroke-linecap:round;stroke-linejoin:round;stroke-miterlimit:10;stroke-dasharray:none;stroke-opacity:1"
             id="path376"
             inkscape:connector-curvature="0" /></g><g
           id="g378"><path
             d="m 63.95029,214.72719 6.29278,-9.86511 6.25061,-9.86446 6.29342,-9.90729 6.29278,-9.86444 6.29277,-9.86447 6.25061,-9.90729 6.29279,-9.86511 6.29342,-9.86447 6.24996,-9.86445 6.29342,-9.9073 6.29279,-9.8651 6.25061,-9.86446 6.29277,-9.90726 6.29343,-9.86448 6.2928,-9.8651 6.25058,9.8651 6.29278,9.86448 6.29279,9.90726 6.25058,9.86446 6.2928,9.8651 6.29342,9.9073 6.29278,9.86445 6.25061,9.86447 6.29278,9.86511 6.29343,9.90729 6.24995,9.86447 6.29343,9.86444 6.29278,9.90729 6.29278,9.86446 6.25061,9.86511 6.29278,-9.86511 6.29344,-9.86446 6.25058,-9.90729 6.29279,-9.86444 6.29278,-9.86447 6.2506,-9.90729 6.29278,-9.86511 6.29343,-9.86447 6.29277,-9.86445 6.25061,-9.9073 1.48839,-2.2961"
             style="fill:none;stroke:#ff7f00;stroke-width:1.19551003;stroke-linecap:round;stroke-linejoin:round;stroke-miterlimit:10;stroke-dasharray:none;stroke-opacity:1"
             id="path380"
             inkscape:connector-curvature="0" /></g><g
           id="g382"><g
             id="g384"
             transform="translate(223.74,209.471)"><g
               id="g386"><g
                 id="g388"
                 transform="translate(-223.74,-209.471)"><text
                   transform="matrix(1,0,0,-1,223.74,209.471)"
                   style="font-variant:normal;font-weight:normal;font-size:9.96259975px;font-family:CMR10;-inkscape-font-specification:CMR10;writing-mode:lr-tb;fill:#000000;fill-opacity:1;fill-rule:nonzero;stroke:none"
                   id="text390"><tspan
                     x="0 4.9812999 9.408679 13.283134 18.818356 23.799656"
                     y="0"
                     sodipodi:role="line"
                     id="tspan392">actual</tspan></text>
<g
                   id="g394"
                   transform="translate(223.74,209.471)" /></g></g><g
               id="g396"
               transform="translate(-223.74,-209.471)" /></g></g><g
           id="g398"><path
             d="m 262.05183,212.13327 38.94852,0"
             style="fill:none;stroke:#43a2ca;stroke-width:1.19551003;stroke-linecap:round;stroke-linejoin:round;stroke-miterlimit:10;stroke-dasharray:none;stroke-opacity:1"
             id="path400"
             inkscape:connector-curvature="0" /></g><g
           id="g402"><path
             d="m 63.95029,227.90836 0.38281,-0.2128 0.42494,-0.21216 0.3828,0 0.38281,-0.12784 0.3828,0.12784 0.42495,0.21216 0.38279,0.085 0.38281,0 0.42497,-0.21216 0.3828,-0.21281 0.38278,-0.085 0.3828,-0.25497 0.42497,-0.085 0.3828,0 0.3828,0.085 0.42498,0.12718 0.38279,0 0.38279,0 0.38216,-0.12718 0.42561,-0.29781 0.3828,-0.2128 0.38213,0 0.42562,-0.12717 0.38279,0.12717 0.38215,0 0.3828,0.085 0.42561,-0.085 0.3828,0 0.38215,-0.12717 0.42562,-0.2128 0.3828,-0.21282 0.38214,0 0.38281,-0.12717 0.4256,0.12717 0.38217,0 0.38278,0.12782 0.42563,0.085 0.38213,-0.21282 0.38282,-0.12717 0.38279,-0.2128 0.42495,0 0.3828,-0.085 0.38278,0 0.42499,-0.12783 0.38279,0 0.3828,0 0.38279,-0.29715 0.42499,-0.25561 0.38278,-0.21216 0.3828,-0.21283 0.42497,-0.2128 0.3828,-0.085 0.38279,-0.12717 0.3828,-0.12782 0.42497,-0.2128 0.3828,-0.085 0.38278,-0.42496 0.42496,-0.33995 0.38281,-0.55279 0.38281,-0.29781 0.38279,-0.46777 0.42496,-0.29782 0.38279,-0.12717 0.38278,-0.2128 0.42499,-0.55279 0.3828,-0.42498 0.38279,-0.55276 0.38215,-0.63777 0.42562,-0.5528 0.38278,-0.63779 0.38218,-0.89341 0.4256,-0.72277 0.38281,-0.67993 0.38212,-0.76561 0.38282,-0.72276 0.42561,-0.89276 0.38214,-0.97841 0.3828,-1.40273 0.42561,-1.61615 0.38216,-1.40274 0.38278,-1.53119 0.3828,-1.10556 0.42497,-1.19055 0.38281,-1.27556 0.38279,-1.44555 0.42498,-1.7005 0.38278,-1.87117 0.3828,-1.95615 0.3828,-2.0405 0.42497,-1.74336 0.3828,-1.31834 0.3828,-1.06276 0.42495,-0.97841 0.38279,-1.19057 0.38281,-1.19053 0.38281,-1.19059 0.42496,-1.44554 0.38278,-1.48834 0.3828,-1.40274 0.42497,-1.31838 0.3828,-1.31837 0.38278,-0.97775 0.38281,-0.85059 0.42497,-0.97775 0.3828,-1.10558 0.38278,-1.19055 0.42499,-1.19055 0.38278,-1.27554 0.38281,-1.10559 0.38215,-1.19057 0.42563,-0.85057 0.38278,-0.89276 0.38212,-0.8506 0.42563,-0.97774 0.38278,-1.10558 0.38217,-1.19055 0.38279,-1.27554 0.42563,-1.44554 0.38214,-1.19059 0.38279,-0.8506 0.42562,-0.76558 0.38217,-0.63777 0.38278,-0.76494 0.3828,-0.63778 0.42497,-0.9784 0.3828,-1.10557 0.3828,-1.19055 0.42493,-0.97776 0.38282,-0.97773 0.38281,-0.63779 0.38278,-0.6806 0.42496,-0.63778 0.3828,-0.42497 0.3828,-0.97839 0.42498,-0.76494 0.38279,-0.97842 0.38279,-0.84992 0.38278,-0.68062 0.42499,-0.63777 0.38278,-0.42499 0.38282,-0.55275 0.42497,-0.63778 0.3828,-0.68059 0.38278,-0.72279 0.3828,-0.89277 0.42497,-0.85057 0.38281,-0.89276 0.38278,-0.63777 0.42496,-0.34064 0.3828,-0.50996 0.38281,-0.5528 0.38214,-0.76558 0.4256,-0.84992 0.38281,-0.7656 0.38214,-0.97774 0.42563,-0.89341 0.38278,-0.97776 0.38216,-0.63778 0.3828,-0.55279 0.42561,-0.63777 0.38215,-0.63778 0.3828,-0.55278 0.42562,-0.7656 0.38212,-0.84993 0.38283,-0.8934 0.3828,-0.84996 0.42496,-0.76558 0.38278,-0.63777 0.38279,-0.46779 0.42498,-0.50996 0.38279,-0.55278 0.3828,-0.5528 0.3828,-0.76558 0.42497,-0.85058 0.3828,-0.89275 0.38278,-0.97779 0.42499,-0.72276 0.38278,-0.68058 0.38281,-0.29781 0.38279,-0.67995 0.42498,-0.63778 0.38279,-0.63776 0.38279,-0.89343 0.42496,-0.63777 0.38279,-0.84993 0.38282,-0.89341 0.3828,-0.42497 0.42495,-0.55279 0.38279,-0.55278 0.38279,-0.42498 0.42498,-0.55278 0.38281,-0.63778 0.38278,-0.63777 0.38216,-0.89277 0.42561,-0.63841 0.3828,-0.76494 0.38215,-0.63778 0.42562,-0.5528 0.38279,-0.55275 0.38216,-0.51063 0.38279,-0.5528 0.42562,-0.55276 0.38278,-0.55214 0.38214,-0.7656 0.42563,-0.72276 0.38282,-0.6806 0.38212,-0.50997 0.38279,-0.6806 0.42562,-0.63777 0.38216,-0.63777 0.3828,-0.67995 0.42561,-0.85059 0.38216,-0.89278 0.38278,-0.97839 0.38281,-0.85058 0.42496,-0.76494 0.38281,-0.42562 0.38278,-0.55213 0.42496,-0.42562 0.3828,-0.42499 0.38281,-0.76557 0.3828,-0.63778 0.42495,-0.89276 0.3828,-0.63777 0.38278,-0.55279 0.42499,-0.55278 0.38278,-0.2978 0.3828,-0.55279 0.3828,-0.55279 0.42498,-0.55279 0.38279,-0.42495 0.38279,-0.5528 0.42498,-0.5106 0.3828,-0.55278 0.38279,-0.55213 0.3828,-0.55279 0.42497,-0.42562 0.3828,-0.42497 0.38278,-0.42563 0.42496,-0.33996 0.38281,-0.76496 0.38281,-0.51059 0.38213,-0.67994 0.42561,-0.76561 0.3828,-0.63778 0.38214,-0.42562 0.42563,-0.42496 0.38278,-0.5528 0.38217,-0.55278 0.38278,-0.55276 0.42563,-0.76494 0.38214,-0.63779 0.38282,-0.63844 0.42559,-0.42496 0.38215,-0.67995 0.38281,-0.42562 0.3828,-0.33997 0.42495,-0.42499 0.38278,-0.42559 0.38282,-0.55278 0.42497,-0.29781 0.3828,-0.46715 0.38278,-0.63777 0.3828,-0.42562 0.42497,-0.2128 0.3828,-0.33999 0.38279,-0.08497 0.42499,-0.25499 0.38278,-0.21283 0.3828,-0.29778 0.38278,-0.42499 0.42499,-0.25497 0.3828,-0.29781 0.3828,-0.33997 0.42495,-0.21279 0.38278,-0.21216 0.38282,-0.21283 0.38279,-0.33995 0.42496,-0.34064 0.3828,-0.29715 0.38281,-0.42561 0.42496,-0.4678 0.38279,-0.085 0.38279,-0.12717 0.38217,0 0.4256,-0.08561 0.38281,-0.12718 0.38214,-0.21281 0.42563,-0.085 0.38278,-0.12716 0.38217,-0.2128 0.38278,-0.12783 0.42563,-0.08501 0.38213,-0.12716 0.38278,0 0.42563,0.12716 0.38214,0 0.38281,0 0.38278,-0.21279 0.42499,0 0.38278,0 0.3828,0.08563 0.42497,0 0.3828,0.12716 0.3828,0.08501 0.3828,0.2128 0.42497,0.12783 0.3828,0.12716 0.38278,0.085 0.42496,0 0.38281,0 0.38281,0.21281 0.38278,0.21279 0.42496,0.21217 0.3828,0.34062 0.38281,0.42498 0.42495,0.2128 0.3828,0.21216 0.3828,0.25499 0.38278,0.2128 0.42499,0.42563 0.38278,0.42495 0.38282,0.42498 0.42495,0.55278 0.38282,0.4256 0.38278,0.42499 0.42498,0.33996 0.38279,0.55279 0.38279,0.33997 0.38215,0.51061 0.42561,0.67996 0.38281,0.85059 0.38213,0.85058 0.42562,0.97775 0.38279,0.89275 0.38217,0.97841 0.38278,0.97775 0.42563,0.97777 0.38214,0.85057 0.3828,0.89276 0.42561,0.97841 0.38216,1.19055 0.3828,1.19055 0.38279,1.27555 0.42496,1.10559 0.38278,0.85058 0.38281,0.76494 0.42496,0.63777 0.38282,0.68061 0.38278,0.8506 0.38279,0.89274 0.42498,0.97776 0.38279,0.97773 0.38278,1.0634 0.42499,0.63779 0.3828,0.55278 0.38279,0.5528 0.38279,0.97773 0.42499,0.85061 0.38278,0.89274 0.38281,1.0634 0.42496,1.19057 0.38281,1.19055 0.38278,0.89275 0.3828,1.19058 0.42496,0.76494 0.38281,0.97841 0.3828,1.06272 0.42495,1.19057 0.3828,0.97841 0.38278,1.3177 0.38216,1.0634 0.42562,1.44556 0.38279,0.84993 0.38216,0.76558 0.42563,0.76563 0.38278,0.63777 0.3828,0.76492 0.38215,1.0634 0.42562,0.97775 0.38279,1.10558 0.38216,1.06338 0.42561,1.1049 0.3828,0.76563 0.38213,0.63777 0.38279,0.42496 0.42562,0.76558 0.38215,0.89278 0.3828,0.85058 0.42562,1.10555 0.38215,1.19058 0.38278,1.06276 0.38281,0.97838 0.42498,1.19055 0.38279,0.89278 0.38279,0.72277 0.42495,0.76558 0.38282,0.97775 0.38281,1.19057 0.38278,1.31838 0.42496,1.10556 0.38281,1.27554 0.3828,0.97778 0.42495,0.97774 0.38279,0.7656 0.38281,0.76558 0.38281,0.97776 0.42496,1.06273 0.38278,1.10559 0.3828,1.27555 0.42497,1.10556 0.3828,0.76561 0.3828,0.63777 0.38279,0.55276 0.42497,0.63777 0.3828,0.5528 0.38278,0.63779 0.42499,0.76559 0.3828,0.89275 0.3828,0.85058 0.38212,0.84995 0.42562,0.76559 0.38281,0.42496 0.38214,0.76559 0.42561,0.76558 0.3828,0.76496 0.38216,0.97841 0.38278,1.19056 0.42563,1.19054 0.38214,0.97778 0.38281,1.10555 0.4256,0.8506 0.38217,0.63779 0.38278,0.67993 0.3828,0.63777 0.42496,0.76561 0.38279,0.97775 0.38282,1.06339 0.42495,1.19056 0.3828,0.97774 0.38278,0.89278 0.38281,0.85058 0.42496,0.7656 0.38281,0.89274 0.38279,0.85059 0.42498,0.97775 0.38279,1.31839 0.38279,1.27555 0.3828,1.10555 0.42497,1.19057 0.3828,0.84995 0.3828,0.76558 0.42497,0.76559 0.3828,0.76494 0.38278,0.8506 0.38281,1.10555 0.42496,1.06276 0.38281,0.9784 0.38278,0.89276 0.42496,0.76559 0.3828,0.50996 0.38278,0.55278 0.38217,0.42497 0.42562,0.6806 0.38279,0.85058 0.38214,0.84996 0.42563,0.8934 0.38278,0.63777 0.38218,0.76494 0.38278,0.63778 0.42563,0.5528 0.38213,0.55275 0.3828,0.5528 0.42562,0.63778 0.38214,0.63777 0.3828,0.76558 0.38281,0.8506 0.42496,0.76494 0.38278,0.68062 0.38279,0.50993 0.42498,0.34063 0.38281,0.42498 0.38278,0.68061 0.3828,0.50995 0.42497,0.68058 0.3828,0.84996 0.3828,1.10556 0.42497,0.97841 0.38279,0.72277 0.3828,0.67996 0.38279,0.55276 0.42495,0.7228 0.38282,0.89338 0.38281,1.06275 0.42496,0.97775 0.38278,1.19057 0.38279,0.97839 0.38282,1.19055 0.42495,0.97779 0.38279,0.68057 0.38281,0.76495 0.42497,0.72278 0.3828,0.8934 0.38278,0.84993 0.38218,0.89342 0.42559,0.84994 0.38281,0.63778 0.38214,0.6806 0.42563,0.50993 0.38278,0.46781 0.38213,0.5106 0.38282,0.46781 0.42559,0.50996 0.38217,0.55278 0.38279,0.76558 0.42562,0.55279 0.38214,0.63776 0.3828,0.63779 0.3828,0.4678 0.42499,0.42496 0.38278,0.42499 0.3828,0.42559 0.42497,0.5528 0.3828,0.55278 0.38279,0.55278 0.3828,0.63777 0.42496,0.42499 0.38281,0.42496 0.38279,0.21281 0.42495,0.46777 0.3828,0.21283 0.38279,0.50994 0.38282,0.34 0.42495,0.2128 0.3828,0.55277 0.38279,0.33998 0.42498,0.085 0.38278,0.12781 0.38282,0.2128 0.38278,0 0.42499,0.29716 0.38278,0.25562 0.38279,0.29716 0.42498,0.34062 0.38281,0.085 0.38278,0.25499 0.38213,0.085 0.42563,-0.33999 0.38281,0 0.38214,0 0.4256,0.12719 0.38281,0 0.38278,0.1278 0.38216,0.21283 0.42561,-0.12783 0.3828,-0.085 0.38216,-0.1278 0.42561,-0.33997 0.3828,-0.21282 0.38215,-0.21216 0.38278,-0.34062 0.42564,-0.21217 0.38215,-0.085 0.3828,-0.2128 0.42561,-0.21282 0.38213,-0.46777 0.38279,-0.63778 0.38282,-0.42498 0.42495,-0.42496 0.3828,-0.34063 0.3828,-0.21216 0.42497,-0.21283 0.3828,-0.33995 0.38278,-0.42563 0.38281,-0.63777 0.42496,-0.67993 0.38281,-0.76563 0.38278,-0.97773 0.42499,-0.63778 0.38278,-0.63778 0.3828,-0.63778 0.3828,-0.6806 0.42496,-0.76559 0.38281,-0.72278 0.3828,-0.97774 0.42495,-1.2334 0.38278,-1.19053 0.3828,-1.06276 0.38283,-1.19057 0.42496,-1.10556 0.38278,-0.85059 0.3828,-0.89276 0.42497,-1.19053 0.3828,-1.4034 0.38279,-1.53053 0.38216,-1.7005 0.42561,-1.87117 0.3828,-1.74337 0.38214,-1.7005 0.42563,-1.65834 0.38278,-1.40339 0.38214,-1.40337 0.38282,-1.40271 0.42562,-1.53117 0.38213,-1.82836 0.38278,-1.8705 0.42563,-2.04116 0.38216,-1.87114 0.38279,-1.61556 0.38279,-1.31838 0.42498,-1.4877 0.38278,-1.53117 0.3828,-1.61555 0.42498,-1.74334 0.38281,-2.08332 0.38278,-1.95613 0.3828,-1.91335 0.42495,-1.87117 0.38282,-1.74333 0.38279,-1.40271 0.42496,-1.53121 0.3828,-1.19055 0.38278,-1.48771 0.38281,-1.65836 0.42496,-1.61618 0.3828,-1.53053 0.38279,-1.48836 0.42499,-1.44554 0.38278,-1.27555 0.3828,-1.40338 0.38278,-0.97775 0.42499,-1.19055 0.3828,-1.44556 0.3828,-1.70115 0.42497,-1.87052 0.3828,-2.04115 0.38278,-1.87117 0.38217,-1.4027 0.4256,-1.19058 0.38281,-1.31837"
             style="fill:none;stroke:#43a2ca;stroke-width:1.19551003;stroke-linecap:round;stroke-linejoin:round;stroke-miterlimit:10;stroke-dasharray:none;stroke-opacity:1"
             id="path404"
             inkscape:connector-curvature="0" /></g><g
           id="g406"><path
             d="m 63.95029,51.74687 188.40706,0"
             style="fill:none;stroke:#000000;stroke-width:0.19925;stroke-linecap:round;stroke-linejoin:round;stroke-miterlimit:10;stroke-dasharray:none;stroke-opacity:1"
             id="path408"
             inkscape:connector-curvature="0" /></g><g
           id="g410"><path
             d="m 282.29199,51.74687 34.35631,0"
             style="fill:none;stroke:#000000;stroke-width:0.19925;stroke-linecap:round;stroke-linejoin:round;stroke-miterlimit:10;stroke-dasharray:none;stroke-opacity:1"
             id="path412"
             inkscape:connector-curvature="0" /></g><g
           id="g414"><g
             id="g416"
             transform="translate(136.464,56.528)"><g
               id="g418"><g
                 id="g420"
                 transform="translate(-136.464,-56.528)"><text
                   transform="matrix(1,0,0,-1,136.464,56.528)"
                   style="font-variant:normal;font-weight:normal;font-size:9.96259975px;font-family:CMR10;-inkscape-font-specification:CMR10;writing-mode:lr-tb;fill:#000000;fill-opacity:1;fill-rule:nonzero;stroke:none"
                   id="text422"><tspan
                     x="0 5.5352206 11.070441 14.972792 18.90204 24.437262 27.204872"
                     y="0"
                     sodipodi:role="line"
                     id="tspan424">pursuit</tspan></text>
<g
                   id="g426"
                   transform="translate(136.464,56.528)" /></g></g><g
               id="g428"
               transform="translate(-136.464,-56.528)" /></g></g><g
           id="g430"><g
             id="g432"
             transform="translate(293.447,56.528)"><g
               id="g434"><g
                 id="g436"
                 transform="translate(-293.447,-56.528)"><text
                   transform="matrix(1,0,0,-1,293.447,56.528)"
                   style="font-variant:normal;font-weight:normal;font-size:9.96259975px;font-family:CMR10;-inkscape-font-specification:CMR10;writing-mode:lr-tb;fill:#000000;fill-opacity:1;fill-rule:nonzero;stroke:none"
                   id="text438"><tspan
                     x="0 3.8744552 8.3018341 12.231084"
                     y="0"
                     sodipodi:role="line"
                     id="tspan440">test</tspan></text>
<g
                   id="g442"
                   transform="translate(293.447,56.528)" /></g></g><g
               id="g444"
               transform="translate(-293.447,-56.528)" /></g></g></g></g></g></svg>