<?xml version="1.0" encoding="UTF-8" standalone="no"?>
<!-- Created with Inkscape (http://www.inkscape.org/) -->

<svg
   xmlns:dc="http://purl.org/dc/elements/1.1/"
   xmlns:cc="http://creativecommons.org/ns#"
   xmlns:rdf="http://www.w3.org/1999/02/22-rdf-syntax-ns#"
   xmlns:svg="http://www.w3.org/2000/svg"
   xmlns="http://www.w3.org/2000/svg"
   xmlns:sodipodi="http://sodipodi.sourceforge.net/DTD/sodipodi-0.dtd"
   xmlns:inkscape="http://www.inkscape.org/namespaces/inkscape"
   id="svg2"
   version="1.1"
   inkscape:version="0.91 r13725"
   xml:space="preserve"
   width="425.19626"
   height="318.89749"
   viewBox="0 0 425.19626 318.89749"
   sodipodi:docname="psychometric_data_p1_mb.pdf"><metadata
     id="metadata8"><rdf:RDF><cc:Work
         rdf:about=""><dc:format>image/svg+xml</dc:format><dc:type
           rdf:resource="http://purl.org/dc/dcmitype/StillImage" /><dc:title></dc:title></cc:Work></rdf:RDF></metadata><defs
     id="defs6" /><sodipodi:namedview
     pagecolor="#ffffff"
     bordercolor="#666666"
     borderopacity="1"
     objecttolerance="10"
     gridtolerance="10"
     guidetolerance="10"
     inkscape:pageopacity="0"
     inkscape:pageshadow="2"
     inkscape:window-width="640"
     inkscape:window-height="480"
     id="namedview4"
     showgrid="false"
     inkscape:zoom="0.74004972"
     inkscape:cx="212.59813"
     inkscape:cy="159.44875"
     inkscape:window-x="65"
     inkscape:window-y="24"
     inkscape:window-maximized="0"
     inkscape:current-layer="g10" /><g
     id="g10"
     inkscape:groupmode="layer"
     inkscape:label="psychometric_data_p1_mb"
     transform="matrix(1.25,0,0,-1.25,0,318.8975)"><g
       id="g12"><g
         id="g14" /><g
         id="g16"><g
           id="g18"><path
             d="m 69.22314,41.8824 247.42516,0 0,197.54877 -247.42516,0 0,-197.54877 z"
             style="fill:#ffffff;fill-opacity:1;fill-rule:nonzero;stroke:#ffffff;stroke-width:0.03984;stroke-linecap:round;stroke-linejoin:round;stroke-miterlimit:10;stroke-dasharray:none;stroke-opacity:1"
             id="path20"
             inkscape:connector-curvature="0" /></g><g
           id="g22"><path
             d="m 69.22314,41.8824 0,197.54877 247.42516,0 0,-197.54877 -247.42516,0 z"
             style="fill:none;stroke:#000000;stroke-width:0.3985;stroke-linecap:round;stroke-linejoin:round;stroke-miterlimit:10;stroke-dasharray:none;stroke-opacity:1"
             id="path24"
             inkscape:connector-curvature="0" /></g><g
           id="g26"><path
             d="m 69.22314,41.8824 5.31502,0"
             style="fill:none;stroke:#000000;stroke-width:0.19925;stroke-linecap:round;stroke-linejoin:round;stroke-miterlimit:10;stroke-dasharray:none;stroke-opacity:1"
             id="path28"
             inkscape:connector-curvature="0" /></g><g
           id="g30"><path
             d="m 316.6483,41.8824 -5.31505,0"
             style="fill:none;stroke:#000000;stroke-width:0.19925;stroke-linecap:round;stroke-linejoin:round;stroke-miterlimit:10;stroke-dasharray:none;stroke-opacity:1"
             id="path32"
             inkscape:connector-curvature="0" /></g><g
           id="g34"><g
             id="g36"
             transform="translate(52.997,39.222)"><g
               id="g38"><g
                 id="g40"
                 transform="translate(-52.997,-39.222)"><text
                   transform="matrix(1,0,0,-1,52.997,39.222)"
                   style="font-variant:normal;font-weight:normal;font-size:9.96259975px;font-family:CMR10;-inkscape-font-specification:CMR10;writing-mode:lr-tb;fill:#000000;fill-opacity:1;fill-rule:nonzero;stroke:none"
                   id="text42"><tspan
                     x="0"
                     y="0"
                     id="tspan44">0</tspan></text>
<g
                   id="g46"
                   transform="translate(52.997,39.222)" /></g></g><g
               id="g48"
               transform="translate(-52.997,-39.222)" /></g></g><g
           id="g50"><path
             d="m 69.22314,140.65678 5.31502,0"
             style="fill:none;stroke:#000000;stroke-width:0.19925;stroke-linecap:round;stroke-linejoin:round;stroke-miterlimit:10;stroke-dasharray:none;stroke-opacity:1"
             id="path52"
             inkscape:connector-curvature="0" /></g><g
           id="g54"><path
             d="m 316.6483,140.65678 -5.31505,0"
             style="fill:none;stroke:#000000;stroke-width:0.19925;stroke-linecap:round;stroke-linejoin:round;stroke-miterlimit:10;stroke-dasharray:none;stroke-opacity:1"
             id="path56"
             inkscape:connector-curvature="0" /></g><g
           id="g58"><g
             id="g60"
             transform="translate(48.016,137.996)"><g
               id="g62"><g
                 id="g64"
                 transform="translate(-48.016,-137.996)"><text
                   transform="matrix(1,0,0,-1,48.016,137.996)"
                   style="font-variant:normal;font-weight:normal;font-size:9.96259975px;font-family:CMR10;-inkscape-font-specification:CMR10;writing-mode:lr-tb;fill:#000000;fill-opacity:1;fill-rule:nonzero;stroke:none"
                   id="text66"><tspan
                     x="0 4.9812999"
                     y="0"
                     sodipodi:role="line"
                     id="tspan68">50</tspan></text>
<g
                   id="g70"
                   transform="translate(48.016,137.996)" /></g></g><g
               id="g72"
               transform="translate(-48.016,-137.996)" /></g></g><g
           id="g74"><path
             d="m 69.22314,239.43117 5.31502,0"
             style="fill:none;stroke:#000000;stroke-width:0.19925;stroke-linecap:round;stroke-linejoin:round;stroke-miterlimit:10;stroke-dasharray:none;stroke-opacity:1"
             id="path76"
             inkscape:connector-curvature="0" /></g><g
           id="g78"><path
             d="m 316.6483,239.43117 -5.31505,0"
             style="fill:none;stroke:#000000;stroke-width:0.19925;stroke-linecap:round;stroke-linejoin:round;stroke-miterlimit:10;stroke-dasharray:none;stroke-opacity:1"
             id="path80"
             inkscape:connector-curvature="0" /></g><g
           id="g82"><g
             id="g84"
             transform="translate(43.034,236.769)"><g
               id="g86"><g
                 id="g88"
                 transform="translate(-43.034,-236.769)"><text
                   transform="matrix(1,0,0,-1,43.034,236.769)"
                   style="font-variant:normal;font-weight:normal;font-size:9.96259975px;font-family:CMR10;-inkscape-font-specification:CMR10;writing-mode:lr-tb;fill:#000000;fill-opacity:1;fill-rule:nonzero;stroke:none"
                   id="text90"><tspan
                     x="0 4.9812999 9.9625998"
                     y="0"
                     sodipodi:role="line"
                     id="tspan92">100</tspan></text>
<g
                   id="g94"
                   transform="translate(43.034,236.769)" /></g></g><g
               id="g96"
               transform="translate(-43.034,-236.769)" /></g></g><g
           id="g98"><path
             d="m 69.22314,41.8824 0,5.31503"
             style="fill:none;stroke:#000000;stroke-width:0.19925;stroke-linecap:round;stroke-linejoin:round;stroke-miterlimit:10;stroke-dasharray:none;stroke-opacity:1"
             id="path100"
             inkscape:connector-curvature="0" /></g><g
           id="g102"><path
             d="m 69.22314,239.43117 0,-5.31502"
             style="fill:none;stroke:#000000;stroke-width:0.19925;stroke-linecap:round;stroke-linejoin:round;stroke-miterlimit:10;stroke-dasharray:none;stroke-opacity:1"
             id="path104"
             inkscape:connector-curvature="0" /></g><g
           id="g106"><g
             id="g108"
             transform="translate(62.58,26.126)"><g
               id="g110"><g
                 id="g112"
                 transform="translate(-62.58,-26.126)"><text
                   transform="matrix(1,0,0,-1,62.58,26.126)"
                   style="font-variant:normal;font-weight:normal;font-size:9.96259975px;font-family:CMR10;-inkscape-font-specification:CMR10;writing-mode:lr-tb;fill:#000000;fill-opacity:1;fill-rule:nonzero;stroke:none"
                   id="text114"><tspan
                     x="0 3.3205345 8.3018341"
                     y="0"
                     sodipodi:role="line"
                     id="tspan116">-16</tspan></text>
<g
                   id="g118"
                   transform="translate(62.58,26.126)" /></g></g><g
               id="g120"
               transform="translate(-62.58,-26.126)" /></g></g><g
           id="g122"><path
             d="m 110.4678,41.8824 0,5.31503"
             style="fill:none;stroke:#000000;stroke-width:0.19925;stroke-linecap:round;stroke-linejoin:round;stroke-miterlimit:10;stroke-dasharray:none;stroke-opacity:1"
             id="path124"
             inkscape:connector-curvature="0" /></g><g
           id="g126"><path
             d="m 110.4678,239.43117 0,-5.31502"
             style="fill:none;stroke:#000000;stroke-width:0.19925;stroke-linecap:round;stroke-linejoin:round;stroke-miterlimit:10;stroke-dasharray:none;stroke-opacity:1"
             id="path128"
             inkscape:connector-curvature="0" /></g><g
           id="g130"><g
             id="g132"
             transform="translate(106.315,26.126)"><g
               id="g134"><g
                 id="g136"
                 transform="translate(-106.315,-26.126)"><text
                   transform="matrix(1,0,0,-1,106.315,26.126)"
                   style="font-variant:normal;font-weight:normal;font-size:9.96259975px;font-family:CMR10;-inkscape-font-specification:CMR10;writing-mode:lr-tb;fill:#000000;fill-opacity:1;fill-rule:nonzero;stroke:none"
                   id="text138"><tspan
                     x="0 3.3205345"
                     y="0"
                     sodipodi:role="line"
                     id="tspan140">-8</tspan></text>
<g
                   id="g142"
                   transform="translate(106.315,26.126)" /></g></g><g
               id="g144"
               transform="translate(-106.315,-26.126)" /></g></g><g
           id="g146"><path
             d="m 151.71179,41.8824 0,5.31503"
             style="fill:none;stroke:#000000;stroke-width:0.19925;stroke-linecap:round;stroke-linejoin:round;stroke-miterlimit:10;stroke-dasharray:none;stroke-opacity:1"
             id="path148"
             inkscape:connector-curvature="0" /></g><g
           id="g150"><path
             d="m 151.71179,239.43117 0,-5.31502"
             style="fill:none;stroke:#000000;stroke-width:0.19925;stroke-linecap:round;stroke-linejoin:round;stroke-miterlimit:10;stroke-dasharray:none;stroke-opacity:1"
             id="path152"
             inkscape:connector-curvature="0" /></g><g
           id="g154"><g
             id="g156"
             transform="translate(149.219,26.126)"><g
               id="g158"><g
                 id="g160"
                 transform="translate(-149.219,-26.126)"><text
                   transform="matrix(1,0,0,-1,149.219,26.126)"
                   style="font-variant:normal;font-weight:normal;font-size:9.96259975px;font-family:CMR10;-inkscape-font-specification:CMR10;writing-mode:lr-tb;fill:#000000;fill-opacity:1;fill-rule:nonzero;stroke:none"
                   id="text162"><tspan
                     x="0"
                     y="0"
                     id="tspan164">0</tspan></text>
<g
                   id="g166"
                   transform="translate(149.219,26.126)" /></g></g><g
               id="g168"
               transform="translate(-149.219,-26.126)" /></g></g><g
           id="g170"><path
             d="m 192.95647,41.8824 0,5.31503"
             style="fill:none;stroke:#000000;stroke-width:0.19925;stroke-linecap:round;stroke-linejoin:round;stroke-miterlimit:10;stroke-dasharray:none;stroke-opacity:1"
             id="path172"
             inkscape:connector-curvature="0" /></g><g
           id="g174"><path
             d="m 192.95647,239.43117 0,-5.31502"
             style="fill:none;stroke:#000000;stroke-width:0.19925;stroke-linecap:round;stroke-linejoin:round;stroke-miterlimit:10;stroke-dasharray:none;stroke-opacity:1"
             id="path176"
             inkscape:connector-curvature="0" /></g><g
           id="g178"><g
             id="g180"
             transform="translate(190.463,26.126)"><g
               id="g182"><g
                 id="g184"
                 transform="translate(-190.463,-26.126)"><text
                   transform="matrix(1,0,0,-1,190.463,26.126)"
                   style="font-variant:normal;font-weight:normal;font-size:9.96259975px;font-family:CMR10;-inkscape-font-specification:CMR10;writing-mode:lr-tb;fill:#000000;fill-opacity:1;fill-rule:nonzero;stroke:none"
                   id="text186"><tspan
                     x="0"
                     y="0"
                     id="tspan188">8</tspan></text>
<g
                   id="g190"
                   transform="translate(190.463,26.126)" /></g></g><g
               id="g192"
               transform="translate(-190.463,-26.126)" /></g></g><g
           id="g194"><path
             d="m 234.15897,41.8824 0,5.31503"
             style="fill:none;stroke:#000000;stroke-width:0.19925;stroke-linecap:round;stroke-linejoin:round;stroke-miterlimit:10;stroke-dasharray:none;stroke-opacity:1"
             id="path196"
             inkscape:connector-curvature="0" /></g><g
           id="g198"><path
             d="m 234.15897,239.43117 0,-5.31502"
             style="fill:none;stroke:#000000;stroke-width:0.19925;stroke-linecap:round;stroke-linejoin:round;stroke-miterlimit:10;stroke-dasharray:none;stroke-opacity:1"
             id="path200"
             inkscape:connector-curvature="0" /></g><g
           id="g202"><g
             id="g204"
             transform="translate(229.175,26.126)"><g
               id="g206"><g
                 id="g208"
                 transform="translate(-229.175,-26.126)"><text
                   transform="matrix(1,0,0,-1,229.175,26.126)"
                   style="font-variant:normal;font-weight:normal;font-size:9.96259975px;font-family:CMR10;-inkscape-font-specification:CMR10;writing-mode:lr-tb;fill:#000000;fill-opacity:1;fill-rule:nonzero;stroke:none"
                   id="text210"><tspan
                     x="0 4.9812999"
                     y="0"
                     sodipodi:role="line"
                     id="tspan212">16</tspan></text>
<g
                   id="g214"
                   transform="translate(229.175,26.126)" /></g></g><g
               id="g216"
               transform="translate(-229.175,-26.126)" /></g></g><g
           id="g218"><path
             d="m 275.40363,41.8824 0,5.31503"
             style="fill:none;stroke:#000000;stroke-width:0.19925;stroke-linecap:round;stroke-linejoin:round;stroke-miterlimit:10;stroke-dasharray:none;stroke-opacity:1"
             id="path220"
             inkscape:connector-curvature="0" /></g><g
           id="g222"><path
             d="m 275.40363,239.43117 0,-5.31502"
             style="fill:none;stroke:#000000;stroke-width:0.19925;stroke-linecap:round;stroke-linejoin:round;stroke-miterlimit:10;stroke-dasharray:none;stroke-opacity:1"
             id="path224"
             inkscape:connector-curvature="0" /></g><g
           id="g226"><g
             id="g228"
             transform="translate(270.419,26.126)"><g
               id="g230"><g
                 id="g232"
                 transform="translate(-270.419,-26.126)"><text
                   transform="matrix(1,0,0,-1,270.419,26.126)"
                   style="font-variant:normal;font-weight:normal;font-size:9.96259975px;font-family:CMR10;-inkscape-font-specification:CMR10;writing-mode:lr-tb;fill:#000000;fill-opacity:1;fill-rule:nonzero;stroke:none"
                   id="text234"><tspan
                     x="0 4.9812999"
                     y="0"
                     sodipodi:role="line"
                     id="tspan236">24</tspan></text>
<g
                   id="g238"
                   transform="translate(270.419,26.126)" /></g></g><g
               id="g240"
               transform="translate(-270.419,-26.126)" /></g></g><g
           id="g242"><path
             d="m 316.6483,41.8824 0,5.31503"
             style="fill:none;stroke:#000000;stroke-width:0.19925;stroke-linecap:round;stroke-linejoin:round;stroke-miterlimit:10;stroke-dasharray:none;stroke-opacity:1"
             id="path244"
             inkscape:connector-curvature="0" /></g><g
           id="g246"><path
             d="m 316.6483,239.43117 0,-5.31502"
             style="fill:none;stroke:#000000;stroke-width:0.19925;stroke-linecap:round;stroke-linejoin:round;stroke-miterlimit:10;stroke-dasharray:none;stroke-opacity:1"
             id="path248"
             inkscape:connector-curvature="0" /></g><g
           id="g250"><g
             id="g252"
             transform="translate(311.663,26.126)"><g
               id="g254"><g
                 id="g256"
                 transform="translate(-311.663,-26.126)"><text
                   transform="matrix(1,0,0,-1,311.663,26.126)"
                   style="font-variant:normal;font-weight:normal;font-size:9.96259975px;font-family:CMR10;-inkscape-font-specification:CMR10;writing-mode:lr-tb;fill:#000000;fill-opacity:1;fill-rule:nonzero;stroke:none"
                   id="text258"><tspan
                     x="0 4.9812999"
                     y="0"
                     sodipodi:role="line"
                     id="tspan260">32</tspan></text>
<g
                   id="g262"
                   transform="translate(311.663,26.126)" /></g></g><g
               id="g264"
               transform="translate(-311.663,-26.126)" /></g></g><g
           id="g266"><path
             d="m 69.22314,239.43117 0,-197.54877 247.42516,0 0,197.54877 -247.42516,0 z"
             style="fill:none;stroke:#000000;stroke-width:0.19925;stroke-linecap:round;stroke-linejoin:round;stroke-miterlimit:10;stroke-dasharray:none;stroke-opacity:1"
             id="path268"
             inkscape:connector-curvature="0" /></g><g
           id="g270"><g
             id="g272"
             transform="matrix(0,1,-1,0,12.605,104.261)"><g
               id="g274"><g
                 id="g276"
                 transform="translate(-12.605,-104.261)"><text
                   transform="matrix(1,0,0,-1,12.605,104.261)"
                   style="font-variant:normal;font-weight:normal;font-size:9.96259975px;font-family:CMR10;-inkscape-font-specification:CMR10;writing-mode:lr-tb;fill:#000000;fill-opacity:1;fill-rule:nonzero;stroke:none"
                   id="text278"><tspan
                     x="0 3.8744552 8.3018341 12.231084 19.423084 25.237259 29.664639 33.56699 37.99437 42.421745 45.189358 50.168663 54.596043 63.458775 66.226387"
                     y="0"
                     sodipodi:role="line"
                     id="tspan280">testperceivedin</tspan></text>
<g
                   id="g282"
                   transform="translate(12.605,104.261)" /></g></g><g
               id="g284"
               transform="translate(-12.605,-104.261)" /></g></g><g
           id="g286"><g
             id="g288"
             transform="matrix(0,1,-1,0,25.701,76.615)"><g
               id="g290"><g
                 id="g292"
                 transform="translate(-25.701,-76.615)"><text
                   transform="matrix(1,0,0,-1,25.701,76.615)"
                   style="font-variant:normal;font-weight:normal;font-size:9.96259975px;font-family:CMR10;-inkscape-font-specification:CMR10;writing-mode:lr-tb;fill:#000000;fill-opacity:1;fill-rule:nonzero;stroke:none"
                   id="text294"><tspan
                     x="0 3.8744552 9.4096756 17.1546 22.689821 25.457432 29.359781 33.787163 38.214542 42.088997 44.856606 49.837906 58.700634 63.681934 70.044052 73.91851 79.453728 87.198654 92.733871 97.161255 102.14256 110.99532 114.86977 123.18157"
                     y="0"
                     sodipodi:role="line"
                     id="tspan296">thedirectionofthehead(%)</tspan></text>
<g
                   id="g298"
                   transform="translate(25.701,76.615)" /></g></g><g
               id="g300"
               transform="translate(-25.701,-76.615)" /></g></g><g
           id="g302"><g
             id="g304"
             transform="translate(153.805,6.482)"><g
               id="g306"><g
                 id="g308"
                 transform="translate(-153.805,-6.482)"><text
                   transform="matrix(1,0,0,-1,153.805,6.482)"
                   style="font-variant:normal;font-weight:normal;font-size:9.96259975px;font-family:CMR10;-inkscape-font-specification:CMR10;writing-mode:lr-tb;fill:#000000;fill-opacity:1;fill-rule:nonzero;stroke:none"
                   id="text310"><tspan
                     x="0 3.8744552 8.3018341 12.231084 19.423084 24.412355 28.839735 31.607346 36.857635 41.285015 44.052624 47.658089 56.233894"
                     y="0"
                     sodipodi:role="line"
                     id="tspan312">testvelocity(</tspan></text>
<text
                   transform="matrix(1,0,0,-1,213.913,10.098)"
                   style="font-variant:normal;font-weight:normal;font-size:6.97380018px;font-family:CMSY7;-inkscape-font-specification:CMSY7;writing-mode:lr-tb;fill:#000000;fill-opacity:1;fill-rule:nonzero;stroke:none"
                   id="text314"><tspan
                     x="0"
                     y="0"
                     id="tspan316">◦</tspan></text>
<text
                   transform="matrix(1,0,0,-1,218.493,6.482)"
                   style="font-variant:normal;font-weight:normal;font-size:9.96259975px;font-family:CMMI10;-inkscape-font-specification:CMMI10;writing-mode:lr-tb;fill:#000000;fill-opacity:1;fill-rule:nonzero;stroke:none"
                   id="text318"><tspan
                     x="0 4.9812999"
                     y="0"
                     sodipodi:role="line"
                     id="tspan320">/s</tspan></text>
<text
                   transform="matrix(1,0,0,-1,228.144,6.482)"
                   style="font-variant:normal;font-weight:normal;font-size:9.96259975px;font-family:CMR10;-inkscape-font-specification:CMR10;writing-mode:lr-tb;fill:#000000;fill-opacity:1;fill-rule:nonzero;stroke:none"
                   id="text322"><tspan
                     x="0"
                     y="0"
                     id="tspan324">)</tspan></text>
<g
                   id="g326"
                   transform="translate(153.805,6.482)" /></g></g><g
               id="g328"
               transform="translate(-153.805,-6.482)" /></g></g><g
           id="g330"><g
             id="g332"
             transform="translate(88.549,222.567)"><g
               id="g334"><g
                 id="g336"
                 transform="translate(-88.549,-222.567)"><text
                   transform="matrix(1,0,0,-1,88.549,222.567)"
                   style="font-variant:normal;font-weight:normal;font-size:9.96259975px;font-family:CMR10;-inkscape-font-specification:CMR10;writing-mode:lr-tb;fill:#000000;fill-opacity:1;fill-rule:nonzero;stroke:none"
                   id="text338"><tspan
                     x="0 4.9812999"
                     y="0"
                     sodipodi:role="line"
                     id="tspan340">20</tspan></text>
<text
                   transform="matrix(1,0,0,-1,98.512,226.182)"
                   style="font-variant:normal;font-weight:normal;font-size:6.97380018px;font-family:CMSY7;-inkscape-font-specification:CMSY7;writing-mode:lr-tb;fill:#000000;fill-opacity:1;fill-rule:nonzero;stroke:none"
                   id="text342"><tspan
                     x="0"
                     y="0"
                     id="tspan344">◦</tspan></text>
<text
                   transform="matrix(1,0,0,-1,103.092,222.567)"
                   style="font-variant:normal;font-weight:normal;font-size:9.96259975px;font-family:CMMI10;-inkscape-font-specification:CMMI10;writing-mode:lr-tb;fill:#000000;fill-opacity:1;fill-rule:nonzero;stroke:none"
                   id="text346"><tspan
                     x="0 4.9812999"
                     y="0"
                     sodipodi:role="line"
                     id="tspan348">/s</tspan></text>
<g
                   id="g350"
                   transform="translate(88.549,222.567)" /></g></g><g
               id="g352"
               transform="translate(-88.549,-222.567)" /></g></g><g
           id="g354"><path
             d="m 123.98894,225.22943 38.94853,0"
             style="fill:none;stroke:#4daf4a;stroke-width:0.79699999;stroke-linecap:round;stroke-linejoin:round;stroke-miterlimit:10;stroke-dasharray:none;stroke-opacity:1"
             id="path356"
             inkscape:connector-curvature="0" /></g><g
           id="g358"><path
             d="m 69.22314,41.8824 2.50829,0 2.50893,0 2.46612,0 2.50894,0 2.50828,0 2.50895,0.04219 2.46611,0 2.50891,0 2.50832,0 2.50894,0.04281 2.50827,0 2.46613,0.04284 2.50892,0.04216 2.50893,0.04283 2.50832,0.04216 2.46609,0.04281 2.50894,0.08501 2.50894,0.08499 2.50829,0.12717 2.50892,0.12783 2.46613,0.16996 2.50894,0.21282 2.50829,0.25499 2.50894,0.25497 2.46611,0.34062 2.50893,0.38214 2.5083,0.46782 2.50892,0.51061 2.5083,0.63777 2.46677,0.72275 2.50827,0.80778 2.50894,0.93559 2.50827,1.06272 2.46678,1.19058 2.50829,1.31838 2.50896,1.53053 2.50827,1.65834 2.50894,1.87117 2.46612,2.04049 2.50893,2.25397 2.50829,2.50827 2.50895,2.67891 2.4661,2.89174 2.50892,3.14609 2.50832,3.35951 2.50891,3.61386 2.50894,3.82666 2.46613,4.03948 2.50828,4.25227 2.50893,4.42227 2.50895,4.67725 2.46612,4.80441 2.50827,4.97505 2.50895,5.10222 2.50829,5.23004 2.50893,5.31504 2.46612,5.4 2.50893,5.40003 2.50829,5.48566 2.50892,5.4422 2.46613,5.40002 2.50892,5.31502 2.50829,5.27286 2.50895,5.18721 2.50893,5.01723 2.46613,4.89004 2.50828,4.67726 2.50893,4.54944 2.50895,4.33726 2.46612,4.12448 2.50828,3.86948 2.50894,3.69885 2.50893,3.44451 2.50828,3.23106 2.46613,3.01955 2.50893,2.76326 2.50892,2.55177 2.50829,2.33832 2.46612,2.12611 2.50895,1.95552 2.50894,1.74333 2.50828,1.57337 2.50893,1.40338 2.46614,1.23337 2.50827,1.1049 2.50894,0.97843 2.50894,0.85058 2.4661,0.76493 2.5083,0.63778 2.50893,0.59562 2.50894,0.46777 2.5083,0.42497 2.46609,0.33998 2.50894,0.29781 2.50894,0.25499 2.50829,0.21279 2.46613,0.16999 2.50892,0.17 2.50896,0.1278"
             style="fill:none;stroke:#4daf4a;stroke-width:0.79699999;stroke-linecap:round;stroke-linejoin:round;stroke-miterlimit:10;stroke-dasharray:none;stroke-opacity:1"
             id="path360"
             inkscape:connector-curvature="0" /></g><g
           id="g362"><g
             id="g364"
             transform="translate(88.25,209.471)"><g
               id="g366"><g
                 id="g368"
                 transform="translate(-88.25,-209.471)"><text
                   transform="matrix(1,0,0,-1,88.25,209.471)"
                   style="font-variant:normal;font-weight:normal;font-size:9.96259975px;font-family:CMR10;-inkscape-font-specification:CMR10;writing-mode:lr-tb;fill:#000000;fill-opacity:1;fill-rule:nonzero;stroke:none"
                   id="text370"><tspan
                     x="0 4.9812999"
                     y="0"
                     sodipodi:role="line"
                     id="tspan372">40</tspan></text>
<text
                   transform="matrix(1,0,0,-1,98.213,213.086)"
                   style="font-variant:normal;font-weight:normal;font-size:6.97380018px;font-family:CMSY7;-inkscape-font-specification:CMSY7;writing-mode:lr-tb;fill:#000000;fill-opacity:1;fill-rule:nonzero;stroke:none"
                   id="text374"><tspan
                     x="0"
                     y="0"
                     id="tspan376">◦</tspan></text>
<text
                   transform="matrix(1,0,0,-1,102.793,209.471)"
                   style="font-variant:normal;font-weight:normal;font-size:9.96259975px;font-family:CMMI10;-inkscape-font-specification:CMMI10;writing-mode:lr-tb;fill:#000000;fill-opacity:1;fill-rule:nonzero;stroke:none"
                   id="text378"><tspan
                     x="0 4.9812999"
                     y="0"
                     sodipodi:role="line"
                     id="tspan380">/s</tspan></text>
<g
                   id="g382"
                   transform="translate(88.25,209.471)" /></g></g><g
               id="g384"
               transform="translate(-88.25,-209.471)" /></g></g><g
           id="g386"><path
             d="m 123.98894,212.13327 38.94853,0"
             style="fill:none;stroke:#377eb8;stroke-width:0.79699999;stroke-linecap:round;stroke-linejoin:round;stroke-miterlimit:10;stroke-dasharray:none;stroke-opacity:1"
             id="path388"
             inkscape:connector-curvature="0" /></g><g
           id="g390"><path
             d="m 69.22314,44.13573 2.50829,0.2128 2.50893,0.21281 2.46612,0.25497 2.50894,0.25499 2.50828,0.255 2.50895,0.29778 2.46611,0.33999 2.50891,0.3406 2.50832,0.3828 2.50894,0.38216 2.50827,0.42561 2.46613,0.42497 2.50892,0.51061 2.50893,0.46714 2.50832,0.55278 2.46609,0.59562 2.50894,0.59494 2.50894,0.6378 2.50829,0.68057 2.50892,0.72279 2.46613,0.76558 2.50894,0.80779 2.50829,0.80774 2.50894,0.89276 2.46611,0.93557 2.50893,0.97779 2.5083,1.02057 2.50892,1.06338 2.5083,1.14774 2.46677,1.14839 2.50827,1.23273 2.50894,1.27554 2.50827,1.36056 2.46678,1.36121 2.50829,1.44553 2.50896,1.48836 2.50827,1.53054 2.50894,1.61553 2.46612,1.65834 2.50893,1.70119 2.50829,1.74333 2.50895,1.82834 2.4661,1.87051 2.50892,1.91333 2.50832,1.95616 2.50891,2.04116 2.50894,2.08329 2.46613,2.12616 2.50828,2.16831 2.50893,2.21113 2.50895,2.2533 2.46612,2.29614 2.50827,2.33894 2.50895,2.38112 2.50829,2.42328 2.50893,2.46613 2.46612,2.50894 2.50893,2.50894 2.50829,2.55112 2.50892,2.5511 2.46613,2.59393 2.50892,2.59328 2.50829,2.63676 2.50895,2.63608 2.50893,2.63611 2.46613,2.67893 2.50828,2.67894 2.50893,2.63609 2.50895,2.67892 2.46612,2.63611 2.50828,2.63608 2.50894,2.63612 2.50893,2.63675 2.50828,2.59328 2.46613,2.59395 2.50893,2.59392 2.50892,2.50828 2.50829,2.50894 2.46612,2.50893 2.50895,2.42329 2.50894,2.42395 2.50828,2.38112 2.50893,2.33831 2.46614,2.29612 2.50827,2.25395 2.50894,2.2105 2.50894,2.16894 2.4661,2.08333 2.5083,2.08333 2.50893,1.99831 2.50894,1.99899 2.5083,1.91331 2.46609,1.82834 2.50894,1.82834 2.50894,1.74334 2.50829,1.70054 2.46613,1.61618 2.50892,1.61552 2.50896,1.53054"
             style="fill:none;stroke:#377eb8;stroke-width:0.79699999;stroke-linecap:round;stroke-linejoin:round;stroke-miterlimit:10;stroke-dasharray:none;stroke-opacity:1"
             id="path392"
             inkscape:connector-curvature="0" /></g><g
           id="g394"><g
             id="g396"
             transform="translate(88.25,196.375)"><g
               id="g398"><g
                 id="g400"
                 transform="translate(-88.25,-196.375)"><text
                   transform="matrix(1,0,0,-1,88.25,196.375)"
                   style="font-variant:normal;font-weight:normal;font-size:9.96259975px;font-family:CMR10;-inkscape-font-specification:CMR10;writing-mode:lr-tb;fill:#000000;fill-opacity:1;fill-rule:nonzero;stroke:none"
                   id="text402"><tspan
                     x="0 4.9812999"
                     y="0"
                     sodipodi:role="line"
                     id="tspan404">60</tspan></text>
<text
                   transform="matrix(1,0,0,-1,98.213,199.99)"
                   style="font-variant:normal;font-weight:normal;font-size:6.97380018px;font-family:CMSY7;-inkscape-font-specification:CMSY7;writing-mode:lr-tb;fill:#000000;fill-opacity:1;fill-rule:nonzero;stroke:none"
                   id="text406"><tspan
                     x="0"
                     y="0"
                     id="tspan408">◦</tspan></text>
<text
                   transform="matrix(1,0,0,-1,102.793,196.375)"
                   style="font-variant:normal;font-weight:normal;font-size:9.96259975px;font-family:CMMI10;-inkscape-font-specification:CMMI10;writing-mode:lr-tb;fill:#000000;fill-opacity:1;fill-rule:nonzero;stroke:none"
                   id="text410"><tspan
                     x="0 4.9812999"
                     y="0"
                     sodipodi:role="line"
                     id="tspan412">/s</tspan></text>
<g
                   id="g414"
                   transform="translate(88.25,196.375)" /></g></g><g
               id="g416"
               transform="translate(-88.25,-196.375)" /></g></g><g
           id="g418"><path
             d="m 123.98894,199.03708 38.94853,0"
             style="fill:none;stroke:#ff7f00;stroke-width:0.79699999;stroke-linecap:round;stroke-linejoin:round;stroke-miterlimit:10;stroke-dasharray:none;stroke-opacity:1"
             id="path420"
             inkscape:connector-curvature="0" /></g><g
           id="g422"><path
             d="m 69.22314,43.07297 2.50829,0.12781 2.50893,0.12718 2.46612,0.1278 2.50894,0.17 2.50828,0.16999 2.50895,0.16998 2.46611,0.17 2.50891,0.2128 2.50832,0.21281 2.50894,0.25497 2.50827,0.25499 2.46613,0.255 2.50892,0.29778 2.50893,0.33999 2.50832,0.3406 2.46609,0.34 2.50894,0.3828 2.50894,0.42495 2.50829,0.42562 2.50892,0.46713 2.46613,0.51063 2.50894,0.55277 2.50829,0.55278 2.50894,0.59497 2.46611,0.63776 2.50893,0.63778 2.5083,0.72278 2.50892,0.72341 2.5083,0.80777 2.46677,0.80777 2.50827,0.85058 2.50894,0.93494 2.50827,0.93559 2.46678,1.02057 2.50829,1.0634 2.50896,1.06271 2.50827,1.14775 2.50894,1.19057 2.46612,1.27622 2.50893,1.27555 2.50829,1.36053 2.50895,1.40273 2.4661,1.44619 2.50892,1.4877 2.50832,1.57336 2.50891,1.61618 2.50894,1.65836 2.46613,1.74269 2.50828,1.74335 2.50893,1.82898 2.50895,1.91334 2.46612,1.91332 2.50827,1.95552 2.50895,2.04113 2.50829,2.08333 2.50893,2.12615 2.46612,2.16894 2.50893,2.21051 2.50829,2.25394 2.50892,2.29613 2.46613,2.3383 2.50892,2.38113 2.50829,2.42392 2.50895,2.4233 2.50893,2.4661 2.46613,2.50896 2.50828,2.50894 2.50893,2.5511 2.50895,2.59393 2.46612,2.55111 2.50828,2.63611 2.50894,2.59393 2.50893,2.6361 2.50828,2.63612 2.46613,2.59392 2.50893,2.63609 2.50892,2.63611 2.50829,2.63609 2.46612,2.59394 2.50895,2.63612 2.50894,2.59392 2.50828,2.5511 2.50893,2.55111 2.46614,2.55176 2.50827,2.50827 2.50894,2.46613 2.50894,2.46611 2.4661,2.38113 2.5083,2.38112 2.50893,2.38114 2.50894,2.29612 2.5083,2.25396 2.46609,2.25329 2.50894,2.16897 2.50894,2.1255 2.50829,2.08397 2.46613,2.04049 2.50892,1.99896 2.50896,1.95553"
             style="fill:none;stroke:#ff7f00;stroke-width:0.79699999;stroke-linecap:round;stroke-linejoin:round;stroke-miterlimit:10;stroke-dasharray:none;stroke-opacity:1"
             id="path424"
             inkscape:connector-curvature="0" /></g><g
           id="g426"><path
             d="m 215.91776,41.8824 0,98.77438"
             style="fill:none;stroke:#4daf4a;stroke-width:0.19925;stroke-linecap:round;stroke-linejoin:round;stroke-miterlimit:10;stroke-dasharray:2.98883, 2.98883;stroke-dashoffset:0;stroke-opacity:1"
             id="path428"
             inkscape:connector-curvature="0" /></g><g
           id="g430"><path
             d="m 237.68782,41.8824 0,98.77438"
             style="fill:none;stroke:#377eb8;stroke-width:0.19925;stroke-linecap:round;stroke-linejoin:round;stroke-miterlimit:10;stroke-dasharray:2.98883, 2.98883;stroke-dashoffset:0;stroke-opacity:1"
             id="path432"
             inkscape:connector-curvature="0" /></g><g
           id="g434"><path
             d="m 256.9496,41.8824 0,98.77438"
             style="fill:none;stroke:#ff7f00;stroke-width:0.19925;stroke-linecap:round;stroke-linejoin:round;stroke-miterlimit:10;stroke-dasharray:2.98883, 2.98883;stroke-dashoffset:0;stroke-opacity:1"
             id="path436"
             inkscape:connector-curvature="0" /></g><g
           id="g438"><path
             d="m 69.22314,140.65678 247.42516,0"
             style="fill:none;stroke:#000000;stroke-width:0.19925;stroke-linecap:round;stroke-linejoin:round;stroke-miterlimit:10;stroke-dasharray:2.98883, 2.98883;stroke-dashoffset:0;stroke-opacity:1"
             id="path440"
             inkscape:connector-curvature="0" /></g><g
           id="g442"><g
             id="g444"
             transform="translate(80.891,141.95)"><g
               id="g446"><g
                 id="g448"
                 transform="translate(-80.891,-141.95)"><text
                   transform="matrix(1,0,0,-1,80.891,141.95)"
                   style="font-variant:normal;font-weight:normal;font-size:9.96259975px;font-family:CMR10;-inkscape-font-specification:CMR10;writing-mode:lr-tb;fill:#000000;fill-opacity:1;fill-rule:nonzero;stroke:none"
                   id="text450"><tspan
                     x="0 5.8141732 10.241552 14.143903 18.571283 22.998663 25.766272 30.745581 35.172958 44.025726 47.954975 51.82943 56.81073 60.685184 63.452797 68.434097 73.969315 78.950615 82.852966 85.620575 89.226044"
                     y="0"
                     sodipodi:role="line"
                     id="tspan452">perceivedstationarity</tspan></text>
<g
                   id="g454"
                   transform="translate(80.891,141.95)" /></g></g><g
               id="g456"
               transform="translate(-80.891,-141.95)" /></g></g></g></g></g></svg>